<svg width="62" height="62" viewBox="0 0 62 62" fill="none" xmlns="http://www.w3.org/2000/svg">
<path d="M31 1C14.4332 1 1 14.4332 1 31C1 47.5668 14.4332 61 31 61C47.5668 61 61 47.5668 61 31C61 14.4332 47.5668 1 31 1Z" stroke="white" stroke-width="2" stroke-miterlimit="10"/>
<path d="M26.4343 26.4351H31.6517V45.3481" stroke="white" stroke-width="2" stroke-linecap="round" stroke-linejoin="round"/>
<path d="M24.4785 46H38.8263" stroke="white" stroke-width="2" stroke-miterlimit="10" stroke-linecap="round"/>
<path d="M30.9999 11.7607C30.1615 11.7607 29.3419 12.0094 28.6447 12.4752C27.9476 12.941 27.4043 13.603 27.0834 14.3776C26.7626 15.1522 26.6786 16.0046 26.8422 16.8269C27.0058 17.6492 27.4095 18.4045 28.0024 18.9974C28.5952 19.5902 29.3506 19.994 30.1729 20.1575C30.9952 20.3211 31.8475 20.2372 32.6221 19.9163C33.3967 19.5955 34.0588 19.0521 34.5246 18.355C34.9904 17.6579 35.239 16.8383 35.239 15.9999C35.239 14.8756 34.7924 13.7973 33.9974 13.0024C33.2024 12.2074 32.1242 11.7607 30.9999 11.7607Z" fill="white"/>
</svg>
