<svg width="311" height="311" viewBox="0 0 311 311" fill="none" xmlns="http://www.w3.org/2000/svg">
<g clip-path="url(#clip0_1504_2153)">
<g opacity="0.2">
<path d="M245.435 240.334C292.878 192.891 292.878 115.971 245.435 68.5287C197.993 21.0861 121.073 21.0861 73.6305 68.5287C26.1879 115.971 26.1879 192.891 73.6305 240.334C121.073 287.776 197.993 287.776 245.435 240.334Z" fill="#34A8AF"/>
</g>
<path d="M148.964 150.799C148.964 150.799 142.744 138.772 158.61 126.951C174.476 115.131 161.872 90.9918 177.027 72.8359L205.12 120.768L209.099 154.783L148.964 150.799Z" fill="#080717"/>
<path d="M219.881 122.201H198.323V154.741H219.881V122.201Z" fill="white"/>
<path d="M219.887 155.348H198.323C198.162 155.348 198.008 155.284 197.894 155.17C197.78 155.056 197.716 154.902 197.716 154.741V122.201C197.716 122.04 197.78 121.886 197.894 121.772C198.008 121.658 198.162 121.594 198.323 121.594H219.887C220.048 121.594 220.202 121.658 220.316 121.772C220.43 121.886 220.494 122.04 220.494 122.201V154.741C220.494 154.902 220.43 155.056 220.316 155.17C220.202 155.284 220.048 155.348 219.887 155.348ZM198.937 154.133H219.279V122.809H198.931L198.937 154.133Z" fill="#090817"/>
<path d="M75.8853 164.338C77.7424 160.915 80.1941 157.85 83.1257 155.287C100.267 140.46 121.442 155.172 148.818 144.882C151.685 143.807 160.633 140.193 170.613 139.676C174.885 139.494 179.164 139.593 183.423 139.974C190.02 140.63 192.705 141.954 206.548 141.796C223.015 141.602 226.945 137.97 238.334 140.436C240.483 140.91 242.598 141.529 244.664 142.288C258.58 147.439 272.313 189.279 278.169 246.291H80.7871L75.8853 164.338Z" fill="#34A8AF"/>
<path d="M241.244 95.8753C241.244 95.4562 241.244 95.2253 241.244 94.8062C241.244 94.3871 241.244 94.1502 241.274 93.8404L241.213 93.7857C240.187 74.9557 225.226 60.0435 206.918 60.0435C189.157 60.0435 174.549 74.0871 172.751 92.1032C172.751 92.1032 166.385 130.407 198.7 136.062C219.285 139.646 230.863 127.006 236.585 113.873C237.228 112.727 237.808 111.547 238.322 110.338C239.324 110.688 240.39 110.82 241.448 110.724C242.505 110.628 243.53 110.307 244.453 109.781C245.376 109.256 246.176 108.539 246.798 107.679C247.421 106.819 247.852 105.835 248.063 104.794C248.273 103.753 248.258 102.68 248.019 101.645C247.78 100.61 247.322 99.6389 246.676 98.7962C246.03 97.9534 245.211 97.2588 244.274 96.7592C243.337 96.2595 242.303 95.9664 241.244 95.8996V95.8753Z" fill="white"/>
<path d="M198.627 136.633C181.619 133.669 175.314 121.654 173.036 112.1C171.565 105.503 171.267 98.6995 172.155 91.9999C174.008 73.4553 188.957 59.436 206.924 59.436C225.353 59.436 240.636 74.4029 241.754 93.5428C241.9 93.81 241.754 93.968 241.821 95.3164C242.916 95.4588 243.97 95.8251 244.918 96.3926C245.866 96.96 246.686 97.7164 247.329 98.6147C247.972 99.5131 248.423 100.534 248.654 101.614C248.885 102.694 248.891 103.81 248.672 104.893C248.453 105.976 248.014 107.002 247.381 107.907C246.748 108.813 245.936 109.578 244.995 110.156C244.054 110.734 243.004 111.112 241.91 111.267C240.816 111.421 239.702 111.349 238.638 111.055C238.17 112.106 237.654 113.138 237.095 114.14C229.867 130.79 216.601 139.768 198.627 136.633ZM206.894 60.6509C189.552 60.6509 175.126 74.1964 173.334 92.1639C172.452 98.7254 172.744 105.391 174.196 111.85C177.398 125.214 185.677 133.153 198.803 135.437C221.217 139.342 231.744 123.434 236.032 113.606C236.67 112.462 237.246 111.283 237.757 110.077C237.818 109.934 237.931 109.82 238.073 109.757C238.216 109.695 238.376 109.69 238.522 109.743C239.443 110.064 240.421 110.184 241.392 110.095C242.362 110.007 243.303 109.711 244.15 109.229C244.997 108.747 245.731 108.088 246.302 107.299C246.873 106.509 247.269 105.606 247.463 104.651C247.656 103.696 247.643 102.71 247.423 101.76C247.204 100.811 246.784 99.9189 246.191 99.1451C245.599 98.3713 244.847 97.7333 243.988 97.274C243.128 96.8148 242.18 96.545 241.207 96.4827C241.053 96.4734 240.907 96.4053 240.801 96.2924C240.695 96.1795 240.636 96.0303 240.636 95.8753C240.636 95.6019 240.636 95.4865 240.636 95.1099C240.636 94.7333 240.636 94.6665 240.636 94.0469C240.604 93.9762 240.585 93.8999 240.582 93.8222C239.567 75.2229 224.746 60.6509 206.894 60.6509Z" fill="#090817"/>
<path d="M224.291 94.9095C224.134 94.9089 223.984 94.8479 223.871 94.7394C222.226 93.0522 220.148 91.849 217.866 91.261C215.583 90.673 213.183 90.7227 210.927 91.4047C210.852 91.4344 210.771 91.4487 210.69 91.4468C210.609 91.4448 210.529 91.4265 210.455 91.3931C210.381 91.3597 210.314 91.3118 210.259 91.2522C210.204 91.1926 210.161 91.1225 210.133 91.0461C210.106 90.9698 210.094 90.8886 210.098 90.8075C210.102 90.7264 210.123 90.647 210.158 90.574C210.194 90.5009 210.244 90.4357 210.305 90.3823C210.366 90.3288 210.437 90.2882 210.514 90.2627C212.991 89.5258 215.621 89.4715 218.126 90.1056C220.631 90.7396 222.918 92.0383 224.746 93.8647C224.836 93.9507 224.897 94.0621 224.921 94.1839C224.946 94.3057 224.932 94.432 224.882 94.5459C224.833 94.6597 224.749 94.7556 224.644 94.8206C224.538 94.8856 224.415 94.9167 224.291 94.9095Z" fill="#080717"/>
<path d="M215.422 98.8459C215.09 98.7062 214.733 98.6377 214.373 98.6451C214.013 98.6524 213.658 98.7353 213.333 98.8884C213.192 98.942 213.036 98.9415 212.896 98.8868C212.755 98.8321 212.64 98.7272 212.573 98.5924C212.506 98.4577 212.491 98.3027 212.531 98.1576C212.572 98.0125 212.665 97.8876 212.792 97.8072C213.289 97.566 213.833 97.4377 214.385 97.4314C214.938 97.4251 215.485 97.541 215.987 97.7707C216.314 97.9518 216.629 98.1547 216.928 98.3782C218.004 99.1374 218.435 99.344 219.109 98.7183C219.167 98.6637 219.236 98.621 219.31 98.5928C219.385 98.5646 219.465 98.5514 219.545 98.554C219.624 98.5565 219.703 98.5747 219.776 98.6076C219.848 98.6405 219.914 98.6874 219.969 98.7456C220.023 98.8039 220.066 98.8723 220.094 98.947C220.122 99.0217 220.135 99.1012 220.133 99.1811C220.13 99.2609 220.112 99.3394 220.079 99.4122C220.046 99.4849 220 99.5505 219.941 99.6051C218.113 101.312 216.552 99.4411 215.422 98.8459Z" fill="#080717"/>
<path d="M214.244 104.47C216.189 104.47 217.767 102.893 217.767 100.947C217.767 99.0016 216.189 97.4243 214.244 97.4243C212.298 97.4243 210.721 99.0016 210.721 100.947C210.721 102.893 212.298 104.47 214.244 104.47Z" fill="#080717"/>
<path d="M180.131 92.6257C180.009 92.6253 179.891 92.5884 179.79 92.5197C179.69 92.451 179.612 92.3537 179.568 92.2405C179.523 92.1273 179.514 92.0033 179.541 91.8846C179.567 91.7659 179.629 91.658 179.718 91.5749C181.405 89.9883 183.526 88.9377 185.81 88.5561C188.095 88.1744 190.441 88.4788 192.553 89.4307C192.69 89.5028 192.794 89.6243 192.844 89.7705C192.894 89.9167 192.887 90.0766 192.823 90.2176C192.76 90.3585 192.645 90.47 192.502 90.5292C192.359 90.5884 192.199 90.5909 192.055 90.5362C190.161 89.6836 188.056 89.4114 186.007 89.7541C183.959 90.0969 182.058 91.0391 180.544 92.4617C180.432 92.5666 180.284 92.6252 180.131 92.6257Z" fill="#080717"/>
<path d="M181.206 97.2909C181.101 97.1685 181.05 97.0095 181.062 96.8488C181.075 96.6882 181.15 96.5392 181.273 96.4344C181.395 96.3297 181.554 96.2779 181.715 96.2905C181.876 96.303 182.025 96.3788 182.129 96.5013C182.737 97.1998 183.18 97.0419 184.334 96.4102C184.658 96.2248 184.993 96.0585 185.337 95.9121C185.863 95.7413 186.42 95.6882 186.969 95.7564C187.518 95.8246 188.045 96.0125 188.513 96.3069C188.581 96.3505 188.639 96.4071 188.684 96.4732C188.729 96.5394 188.761 96.6139 188.777 96.6924C188.794 96.7709 188.794 96.8518 188.779 96.9306C188.764 97.0093 188.734 97.0843 188.69 97.1512C188.645 97.218 188.589 97.2754 188.522 97.3201C188.456 97.3648 188.381 97.3959 188.303 97.4118C188.224 97.4276 188.143 97.4277 188.065 97.4122C187.986 97.3967 187.912 97.3658 187.845 97.3213C187.54 97.1326 187.198 97.0107 186.842 96.9636C186.486 96.9165 186.124 96.9453 185.78 97.0479C184.577 97.5157 182.834 99.1861 181.206 97.2909Z" fill="#080717"/>
<path d="M186.715 102.794C188.661 102.794 190.238 101.217 190.238 99.2711C190.238 97.3254 188.661 95.748 186.715 95.748C184.77 95.748 183.192 97.3254 183.192 99.2711C183.192 101.217 184.77 102.794 186.715 102.794Z" fill="#080717"/>
<path d="M196.422 107.708C195.59 106.299 198.092 100.34 199.234 97.8555C199.306 97.7187 199.428 97.6146 199.574 97.5643C199.72 97.514 199.88 97.5214 200.021 97.5849C200.162 97.6484 200.274 97.7633 200.333 97.9061C200.392 98.0489 200.395 98.209 200.34 98.3536C198.706 101.998 197.169 106.365 197.491 107.088C197.813 107.811 200.358 107.963 202.004 107.878C202.084 107.874 202.164 107.886 202.239 107.913C202.314 107.939 202.383 107.981 202.443 108.034C202.502 108.088 202.55 108.153 202.584 108.225C202.618 108.297 202.638 108.375 202.642 108.455C202.646 108.535 202.634 108.615 202.607 108.69C202.58 108.765 202.539 108.834 202.486 108.893C202.432 108.953 202.367 109.001 202.295 109.035C202.223 109.069 202.145 109.089 202.065 109.093C200.449 109.172 197.242 109.075 196.422 107.708Z" fill="#080717"/>
<path d="M219.622 113.382C222.312 113.364 224.484 111.926 224.471 110.172C224.459 108.417 222.268 107.01 219.578 107.029C216.887 107.048 214.716 108.485 214.728 110.24C214.741 111.994 216.932 113.401 219.622 113.382Z" fill="#34A8AF"/>
<path d="M183.938 112.751C186.629 112.732 188.8 111.294 188.788 109.54C188.775 107.785 186.585 106.378 183.894 106.397C181.204 106.416 179.033 107.853 179.045 109.608C179.057 111.362 181.248 112.769 183.938 112.751Z" fill="#34A8AF"/>
<path d="M219.874 138.474H194.15V146.389H219.874V138.474Z" fill="#34A8AF"/>
<path d="M172.222 95.7419C172.222 95.7419 163.718 84.7172 167.685 74.1298C171.651 63.5425 180.034 65.8142 186.715 59.005C193.397 52.1958 203.438 48.606 209.099 55.9679C209.099 55.9679 227.619 49.3531 241.231 60.0316C254.844 70.7101 253.331 92.1095 252.955 116.771C252.578 141.432 271.244 147.901 278.169 166.974C285.093 186.047 271.487 201.937 271.487 201.937C267.375 186.193 263.135 172.872 259.406 162.224C259.114 161.392 254.382 148.254 246.267 143.394C244.168 142.031 241.745 141.249 239.245 141.128C236.208 141.05 235.03 142.185 231.519 142.951C229.089 143.497 223.398 144.773 220.67 142.526C216.831 139.379 218.471 128.98 223.404 122.153C228.609 114.949 238.346 110.265 238.346 110.265C238.68 110.265 244.42 111.219 246.559 107.975C248.697 104.732 248.429 101.16 247.318 99.6416C246.206 98.123 242.932 95.6629 240.806 96.7259C238.68 97.7889 236.554 100.862 235.582 96.2643C234.611 91.6661 231.841 64.2532 210.739 62.3641C210.739 62.3641 198.074 61.7931 190.263 69.9265C182.451 78.0599 180.167 95.2317 172.222 95.7419Z" fill="#080717"/>
<path d="M200.115 121.958C200.014 121.958 199.914 121.932 199.825 121.884C199.736 121.835 199.661 121.765 199.606 121.68C199.551 121.595 199.518 121.497 199.511 121.396C199.503 121.295 199.521 121.194 199.562 121.101C200.423 119.192 201.81 117.567 203.56 116.416C205.31 115.265 207.351 114.636 209.445 114.602C209.606 114.602 209.761 114.666 209.875 114.78C209.989 114.894 210.053 115.048 210.053 115.209C210.053 115.371 209.989 115.525 209.875 115.639C209.761 115.753 209.606 115.817 209.445 115.817C207.58 115.846 205.763 116.405 204.204 117.429C202.645 118.453 201.41 119.9 200.644 121.6C200.598 121.702 200.524 121.79 200.43 121.854C200.337 121.917 200.228 121.953 200.115 121.958Z" fill="#080717"/>
<path d="M241.633 108.23C241.521 108.23 241.412 108.199 241.317 108.141C241.223 108.082 241.146 107.999 241.095 107.9C241.044 107.801 241.021 107.69 241.03 107.579C241.038 107.468 241.076 107.361 241.141 107.271C241.942 106.141 242.216 105.157 241.954 104.343C241.547 103.079 239.968 102.521 239.95 102.521C239.835 102.482 239.735 102.41 239.662 102.314C239.588 102.218 239.545 102.102 239.538 101.981C239.531 101.861 239.56 101.741 239.621 101.636C239.683 101.532 239.774 101.449 239.883 101.397L244.633 99.1373C244.778 99.0684 244.945 99.0598 245.096 99.1133C245.247 99.1668 245.371 99.2781 245.441 99.4228C245.476 99.4949 245.497 99.5733 245.501 99.6533C245.506 99.7334 245.494 99.8135 245.468 99.8892C245.441 99.9649 245.4 100.035 245.346 100.094C245.293 100.154 245.228 100.202 245.156 100.237L241.511 101.968C243.704 103.444 243.752 105.685 242.118 107.969C242.064 108.048 241.991 108.113 241.907 108.158C241.822 108.204 241.728 108.228 241.633 108.23Z" fill="#080717"/>
<path d="M187.456 278.053H49.0129C48.6289 278.078 48.2444 278.015 47.8881 277.87C47.5318 277.725 47.2129 277.502 46.9552 277.216C46.6976 276.93 46.5079 276.59 46.4003 276.221C46.2928 275.851 46.2701 275.462 46.3341 275.083L63.5545 164.004C63.7225 163.159 64.177 162.399 64.8411 161.851C65.5052 161.303 66.3381 161.001 67.1991 160.997H206.39C206.777 160.973 207.164 161.038 207.522 161.186C207.88 161.334 208.2 161.561 208.457 161.85C208.715 162.14 208.903 162.484 209.008 162.857C209.113 163.23 209.131 163.622 209.062 164.004L191.077 275.083C190.902 275.917 190.448 276.666 189.79 277.206C189.131 277.746 188.308 278.045 187.456 278.053Z" fill="white"/>
<path d="M187.456 278.661H49.0129C48.5438 278.685 48.0753 278.603 47.6415 278.423C47.2078 278.243 46.8196 277.968 46.5054 277.619C46.1912 277.27 45.9588 276.855 45.8251 276.405C45.6915 275.955 45.66 275.48 45.7328 275.016L62.9532 163.949C63.1479 162.963 63.6774 162.074 64.4523 161.433C65.2271 160.792 66.1996 160.438 67.2052 160.432H206.39C206.865 160.408 207.339 160.492 207.777 160.677C208.215 160.862 208.606 161.143 208.921 161.499C209.235 161.856 209.465 162.279 209.594 162.737C209.723 163.194 209.747 163.675 209.664 164.144L191.678 275.162C191.48 276.14 190.953 277.02 190.185 277.656C189.417 278.293 188.454 278.647 187.456 278.661ZM67.187 161.623C66.4718 161.626 65.7796 161.876 65.2266 162.329C64.6736 162.783 64.2934 163.413 64.1498 164.113L46.9355 275.162C46.8843 275.455 46.901 275.756 46.9842 276.041C47.0675 276.327 47.2151 276.589 47.4158 276.809C47.6164 277.028 47.8648 277.198 48.1416 277.307C48.4185 277.415 48.7166 277.459 49.0129 277.434H187.456C188.168 277.433 188.857 277.188 189.41 276.74C189.962 276.293 190.345 275.669 190.494 274.974L208.479 163.913C208.534 163.618 208.521 163.315 208.44 163.027C208.359 162.739 208.213 162.473 208.012 162.25C207.812 162.027 207.563 161.854 207.285 161.743C207.007 161.632 206.707 161.587 206.408 161.611L67.187 161.623Z" fill="#090817"/>
<path d="M75.6787 165.279C75.6787 165.279 72.0767 156.247 74.8466 154.042C77.6164 151.837 79.8639 155.3 79.8639 155.3C79.8639 155.3 80.5077 152.396 83.2168 152.262C85.9259 152.129 86.4969 155.166 86.4969 155.166C86.4969 155.166 87.402 152.001 90.105 152.256C92.808 152.511 93.1421 155.415 93.1421 155.415C93.1421 155.415 95.4625 151.4 98.4267 152.238C101.391 153.076 98.5542 165.96 97.139 167.606C95.7237 169.252 92.7594 164.696 92.7594 164.696C92.7594 164.696 89.534 173.668 86.7642 165.304C86.7642 165.304 84.1948 173.893 80.9086 166.519C80.8965 166.543 78.1266 172.405 75.6787 165.279Z" fill="white"/>
<path d="M80.8478 167.812C80.3011 168.578 79.4143 169.477 78.3209 169.416C77.0453 169.343 75.9945 168.061 75.1137 165.492C74.7007 164.459 71.4692 155.974 74.4638 153.562C76.1949 152.183 78.1083 152.511 79.6633 154.109C81.1758 151.072 84.9357 150.768 86.5515 153.617C86.8931 152.986 87.4079 152.467 88.0352 152.119C88.6625 151.771 89.3761 151.61 90.0919 151.655C90.8076 151.7 91.4957 151.948 92.0749 152.371C92.654 152.794 93.1002 153.374 93.3607 154.042C94.3629 152.827 96.2581 151.005 98.5784 151.667C98.9455 151.801 99.2714 152.028 99.5238 152.327C99.7763 152.625 99.9466 152.984 100.018 153.368C101.13 157.067 98.9064 166.482 97.5883 168.013C97.4304 168.205 97.2289 168.356 97.0007 168.454C96.7725 168.552 96.5242 168.595 96.2763 168.578C95.0615 168.493 93.6948 167.011 92.893 165.96C91.0707 169.951 88.556 170.935 86.7702 167.041C85.1058 170.746 82.7612 171.293 80.8478 167.812ZM81.4552 166.294C82.2206 168.013 83.0406 168.985 83.6662 168.93C84.6381 168.869 85.7193 166.695 86.181 165.17C86.2209 165.049 86.2982 164.943 86.4018 164.868C86.5054 164.793 86.6301 164.752 86.758 164.752C86.8859 164.752 87.0106 164.793 87.1142 164.868C87.2178 164.943 87.2951 165.049 87.3351 165.17C88.2705 167.982 89.0966 168.298 89.4064 168.298C90.524 168.298 91.7935 165.595 92.1823 164.526C92.221 164.421 92.288 164.329 92.376 164.259C92.464 164.19 92.5695 164.146 92.6808 164.133C92.792 164.12 92.9048 164.138 93.0066 164.184C93.1084 164.231 93.1952 164.305 93.2574 164.399C94.0471 165.614 95.5292 167.326 96.3553 167.381C96.4162 167.387 96.4777 167.377 96.5332 167.352C96.5888 167.326 96.6365 167.286 96.6711 167.235C97.6126 166.148 99.8722 157.11 98.8578 153.732C98.7546 153.38 98.5663 152.943 98.2504 152.858C95.7843 152.153 93.6826 155.713 93.6644 155.749C93.6004 155.86 93.503 155.948 93.3862 156C93.2693 156.052 93.1389 156.066 93.0137 156.04C92.8884 156.014 92.7746 155.948 92.6886 155.854C92.6026 155.759 92.5487 155.639 92.5346 155.512C92.5346 155.415 92.2248 153.082 90.0563 152.888C87.8878 152.694 87.1225 155.251 87.086 155.36C87.0475 155.491 86.9664 155.604 86.8557 155.683C86.745 155.762 86.6111 155.801 86.4754 155.795C86.3397 155.788 86.21 155.737 86.1071 155.648C86.0042 155.559 85.9339 155.439 85.9076 155.306C85.9076 155.208 85.3731 152.791 83.2471 152.876C81.1211 152.961 80.4894 155.306 80.4651 155.433C80.4388 155.549 80.379 155.655 80.293 155.738C80.2071 155.82 80.0988 155.875 79.9816 155.897C79.8645 155.918 79.7436 155.904 79.6341 155.858C79.5246 155.811 79.4313 155.733 79.3657 155.634C79.3657 155.634 78.3756 154.145 77.0514 153.939C76.7239 153.894 76.3906 153.923 76.0755 154.023C75.7604 154.123 75.4713 154.291 75.2291 154.516C73.4676 155.919 74.9194 161.726 76.2496 165.055C77.1972 167.818 78.0719 168.159 78.3817 168.177C79.147 168.238 80.0399 166.901 80.3436 166.257C80.3953 166.153 80.4761 166.065 80.5762 166.005C80.6763 165.946 80.7915 165.916 80.9081 165.92C81.0247 165.923 81.1377 165.961 81.2337 166.027C81.3296 166.093 81.4044 166.186 81.4491 166.294H81.4552Z" fill="#090817"/>
<path d="M80.8965 167.15C80.7425 167.151 80.5941 167.093 80.4813 166.988C80.3686 166.883 80.2999 166.739 80.2891 166.585L79.4265 154.826C79.421 154.746 79.4311 154.666 79.4565 154.59C79.4819 154.514 79.5219 154.444 79.5744 154.384C79.6803 154.262 79.8303 154.187 79.9914 154.176C80.1525 154.165 80.3115 154.218 80.4334 154.324C80.5553 154.43 80.6301 154.58 80.6414 154.741L81.5039 166.5C81.5098 166.584 81.4984 166.667 81.4705 166.746C81.4426 166.825 81.3988 166.897 81.3418 166.958C81.2848 167.019 81.2158 167.067 81.1392 167.1C81.0626 167.134 80.98 167.151 80.8965 167.15Z" fill="#080717"/>
<path d="M86.582 166.433C86.4209 166.433 86.2664 166.369 86.1525 166.255C86.0386 166.142 85.9746 165.987 85.9746 165.826L86.1447 154.498C86.1447 154.336 86.2087 154.182 86.3226 154.068C86.4365 153.954 86.591 153.89 86.7521 153.89C86.9132 153.89 87.0677 153.954 87.1816 154.068C87.2955 154.182 87.3595 154.336 87.3595 154.498L87.1895 165.826C87.1895 165.987 87.1255 166.142 87.0115 166.255C86.8976 166.369 86.7431 166.433 86.582 166.433Z" fill="#080717"/>
<path d="M92.7473 165.316C92.6633 165.316 92.5801 165.299 92.5031 165.265C92.426 165.232 92.3567 165.183 92.2997 165.121C92.2426 165.059 92.1989 164.987 92.1714 164.907C92.1439 164.828 92.1332 164.744 92.1399 164.66L92.9356 154.735C92.942 154.655 92.964 154.577 93.0004 154.506C93.0369 154.435 93.087 154.371 93.1479 154.319C93.2088 154.267 93.2793 154.228 93.3555 154.203C93.4316 154.179 93.5119 154.169 93.5916 154.176C93.6714 154.182 93.7491 154.204 93.8204 154.241C93.8916 154.277 93.955 154.327 94.0069 154.388C94.0588 154.449 94.0982 154.519 94.1228 154.596C94.1474 154.672 94.1568 154.752 94.1505 154.832L93.3304 164.763C93.3172 164.91 93.2507 165.048 93.1433 165.15C93.036 165.251 92.8951 165.311 92.7473 165.316Z" fill="#080717"/>
<path d="M63.8401 110.642L71.202 132.285L58.6223 114.517L63.8401 110.642Z" fill="#080717"/>
<path d="M99.4045 105.558V134.283L108.886 107.24L99.4045 105.558Z" fill="#080717"/>
<path d="M58.6222 149.772L38.7109 141.632V149.772H58.6222Z" fill="#080717"/>
<path d="M176.371 181.504H77.2398L76.1221 171.329C75.9712 170.148 75.4014 169.06 74.5164 168.263C73.6314 167.466 72.4898 167.013 71.2992 166.986H33.8456C33.2938 166.973 32.7459 167.081 32.2402 167.302C31.7344 167.523 31.2832 167.852 30.918 168.266C30.5528 168.679 30.2825 169.168 30.1262 169.697C29.9698 170.227 29.9311 170.784 30.0127 171.329C30.3043 173.759 42.5135 276.249 42.3252 274.664C42.4552 275.513 42.8804 276.288 43.526 276.853C44.1716 277.419 44.9961 277.739 45.8543 277.756H185.069C185.469 277.767 185.866 277.694 186.235 277.539C186.604 277.385 186.936 277.154 187.208 276.861C187.481 276.569 187.688 276.221 187.815 275.843C187.943 275.464 187.988 275.062 187.948 274.664L179.876 184.711C179.783 183.841 179.375 183.035 178.73 182.445C178.084 181.854 177.246 181.52 176.371 181.504Z" fill="white"/>
<path d="M185.069 278.363H45.8543C44.8453 278.345 43.8758 277.968 43.1191 277.3C42.3624 276.633 41.8678 275.718 41.7238 274.719L29.4114 171.402C29.3185 170.771 29.3644 170.127 29.5459 169.516C29.7274 168.904 30.0401 168.34 30.4623 167.861C30.8845 167.383 31.4059 167.003 31.9903 166.747C32.5746 166.491 33.2078 166.365 33.8456 166.379H71.2992C72.6342 166.409 73.9145 166.916 74.909 167.807C75.9036 168.698 76.5471 169.915 76.7235 171.238L77.7865 180.872H176.371C177.396 180.891 178.379 181.284 179.135 181.976C179.891 182.668 180.368 183.613 180.477 184.632L188.556 274.585C188.607 275.069 188.554 275.558 188.401 276.02C188.248 276.482 187.998 276.906 187.668 277.264C187.338 277.621 186.936 277.904 186.488 278.094C186.039 278.284 185.556 278.375 185.069 278.363ZM33.8213 167.594C33.3573 167.581 32.8961 167.669 32.4701 167.854C32.0442 168.038 31.664 168.314 31.3564 168.662C31.0488 169.009 30.8212 169.42 30.6898 169.866C30.5584 170.311 30.5263 170.779 30.5959 171.238L42.9326 274.597C43.0378 275.3 43.3894 275.942 43.9246 276.41C44.4598 276.877 45.1438 277.139 45.8543 277.148H185.069C185.385 277.161 185.699 277.105 185.991 276.985C186.284 276.865 186.546 276.684 186.762 276.453C186.978 276.223 187.142 275.949 187.243 275.649C187.344 275.35 187.38 275.033 187.347 274.719L179.268 184.766C179.192 184.046 178.855 183.38 178.321 182.891C177.788 182.402 177.094 182.125 176.371 182.111H77.2398C77.0896 182.112 76.9445 182.057 76.8323 181.958C76.7201 181.858 76.6489 181.72 76.6324 181.571L75.5086 171.396C75.3768 170.363 74.879 169.411 74.1056 168.714C73.3322 168.016 72.3344 167.619 71.2931 167.594H33.8213Z" fill="#090817"/>
<mask id="mask0_1504_2153" style="mask-type:luminance" maskUnits="userSpaceOnUse" x="43" y="192" width="135" height="75">
<path d="M173.03 266.895H55.6277C54.4407 266.873 53.3003 266.429 52.4102 265.644C51.5201 264.858 50.9381 263.782 50.7683 262.607L43.0723 197.102C42.9916 196.546 43.0335 195.978 43.1951 195.439C43.3566 194.9 43.634 194.403 44.0077 193.982C44.3814 193.562 44.8425 193.228 45.3587 193.004C45.8749 192.78 46.4338 192.672 46.9962 192.686H166.154C167.364 192.702 168.526 193.159 169.421 193.973C170.317 194.786 170.883 195.9 171.014 197.102L177.027 262.607C177.085 263.159 177.023 263.718 176.847 264.244C176.67 264.771 176.383 265.254 176.004 265.66C175.626 266.067 175.164 266.387 174.651 266.6C174.138 266.813 173.585 266.914 173.03 266.895Z" fill="white"/>
</mask>
<g mask="url(#mask0_1504_2153)">
<path d="M173.03 266.895H55.6277C54.4407 266.873 53.3003 266.429 52.4102 265.644C51.5201 264.858 50.9381 263.782 50.7683 262.607L43.0723 197.102C42.9916 196.546 43.0335 195.978 43.1951 195.439C43.3566 194.9 43.634 194.403 44.0077 193.982C44.3814 193.562 44.8425 193.228 45.3587 193.004C45.8749 192.78 46.4338 192.672 46.9962 192.686H166.154C167.364 192.702 168.526 193.159 169.421 193.973C170.317 194.786 170.883 195.9 171.014 197.102L177.027 262.607C177.085 263.159 177.023 263.718 176.847 264.244C176.67 264.771 176.383 265.254 176.004 265.66C175.626 266.067 175.164 266.387 174.651 266.6C174.138 266.813 173.585 266.914 173.03 266.895Z" fill="white"/>
<path d="M173.03 267.502H55.6276C54.2919 267.476 53.0091 266.976 52.0079 266.091C51.0066 265.207 50.352 263.996 50.1608 262.673L42.4709 197.169C42.3799 196.527 42.4297 195.874 42.6168 195.253C42.8039 194.633 43.1239 194.06 43.5546 193.576C43.9852 193.091 44.5161 192.707 45.1104 192.448C45.7047 192.19 46.3482 192.064 46.9962 192.079H166.154C167.514 192.099 168.82 192.615 169.827 193.53C170.834 194.444 171.472 195.696 171.621 197.048L177.628 262.546C177.696 263.183 177.627 263.827 177.425 264.435C177.223 265.043 176.893 265.601 176.457 266.071C176.022 266.54 175.49 266.911 174.899 267.158C174.308 267.405 173.671 267.523 173.03 267.502ZM46.9962 193.294C46.5197 193.279 46.0457 193.368 45.6078 193.557C45.1699 193.745 44.7789 194.028 44.4624 194.384C44.1459 194.741 43.9117 195.163 43.7764 195.62C43.6412 196.077 43.6081 196.558 43.6796 197.029L51.3514 262.534C51.5019 263.561 52.0117 264.502 52.7901 265.189C53.5685 265.876 54.5652 266.266 55.6033 266.288H173.03C173.501 266.305 173.97 266.22 174.406 266.039C174.841 265.858 175.232 265.585 175.552 265.239C175.872 264.893 176.114 264.482 176.26 264.034C176.407 263.586 176.455 263.111 176.401 262.643L170.394 197.139C170.277 196.087 169.781 195.115 168.998 194.404C168.215 193.692 167.2 193.291 166.142 193.275L46.9962 193.294Z" fill="#090817"/>
<path d="M39.6586 236.931C39.6586 236.931 79.2503 220.737 90.3358 220.124C101.421 219.51 105.023 236.014 112.841 236.931C120.658 237.848 127.577 211.523 146.213 208.449C164.848 205.375 176.414 222.985 176.414 222.985L181.012 273.504H48.9096L39.6586 236.931Z" fill="#080717"/>
<path d="M68.4261 198.226C69.325 206.262 63.512 212.756 55.4394 212.756C47.3667 212.756 40.0534 206.262 39.1058 198.226C38.1582 190.19 43.9652 183.648 52.0864 183.648C60.2076 183.648 67.521 190.172 68.4261 198.226Z" fill="#080717"/>
</g>
<path d="M116.018 33.542C121.697 33.5337 127.245 35.2485 131.93 38.4598C136.614 41.6711 140.214 46.2279 142.254 51.5282C144.294 56.8286 144.679 62.6231 143.356 68.1465C142.034 73.6698 139.067 78.662 134.848 82.4638L142.404 92.0428C142.512 92.1794 142.572 92.3473 142.576 92.5212C142.579 92.695 142.527 92.8654 142.425 93.0066C142.324 93.1478 142.179 93.2522 142.013 93.3041C141.847 93.3559 141.669 93.3524 141.505 93.2941L126.107 87.8273C107.793 94.8552 87.9851 81.334 87.9851 61.6171C87.9835 54.178 90.935 47.0425 96.1913 41.7783C101.448 36.514 108.579 33.5517 116.018 33.542Z" fill="white"/>
<path d="M141.748 93.9499C141.389 93.9499 142.41 94.2718 126.089 88.4831C107.35 95.5049 87.3472 81.5706 87.3472 61.6229C87.3447 56.8661 88.5254 52.1833 90.7829 47.9963C93.0403 43.8093 96.3037 40.2495 100.279 37.6373C104.255 35.0252 108.817 33.4428 113.556 33.0326C118.295 32.6224 123.062 33.3973 127.427 35.2876C131.792 37.1778 135.619 40.124 138.562 43.8608C141.505 47.5977 143.473 52.0079 144.288 56.6944C145.103 61.3809 144.74 66.1965 143.23 70.7076C141.721 75.2187 139.114 79.2836 135.643 82.5364L142.847 91.6477C143.017 91.8548 143.124 92.1058 143.156 92.3715C143.188 92.6372 143.144 92.9065 143.029 93.148C142.913 93.3895 142.732 93.5931 142.505 93.7351C142.278 93.8771 142.015 93.9516 141.748 93.9499ZM126.076 87.2136C126.24 87.2136 125.202 86.8673 141.675 92.7229C141.715 92.7374 141.758 92.7385 141.799 92.7261C141.839 92.7136 141.875 92.6883 141.899 92.6539C141.924 92.6195 141.937 92.5779 141.936 92.5356C141.935 92.4932 141.92 92.4523 141.894 92.4192L134.343 82.834C134.248 82.7135 134.202 82.5612 134.214 82.4078C134.226 82.2545 134.297 82.1116 134.41 82.008C139.171 77.7124 142.279 71.8859 143.193 65.539C144.108 59.1921 142.772 52.7252 139.418 47.2602C136.063 41.7951 130.901 37.6766 124.828 35.6191C118.755 33.5616 112.153 33.6948 106.167 35.9957C100.182 38.2966 95.1905 42.6199 92.0591 48.2159C88.9278 53.8118 87.854 60.3273 89.024 66.6321C90.1939 72.937 93.5338 78.6334 98.4644 82.7333C103.395 86.8333 109.605 89.0781 116.017 89.0783C121.988 89.0783 125.633 87.2136 126.076 87.2136Z" fill="#090817"/>
<path d="M116.844 77.2096H115.204C112.757 77.2063 110.412 76.2332 108.683 74.5035C106.953 72.7739 105.98 70.4289 105.977 67.9828V54.9172C105.98 52.4711 106.953 50.1261 108.683 48.3964C110.412 46.6668 112.757 45.6936 115.204 45.6904H116.844C119.291 45.692 121.637 46.6645 123.368 48.3943C125.099 50.1241 126.073 52.47 126.076 54.9172V67.9828C126.073 70.43 125.099 72.7759 123.368 74.5057C121.637 76.2355 119.291 77.2079 116.844 77.2096ZM115.204 50.5498C114.046 50.5514 112.936 51.0121 112.117 51.8308C111.298 52.6494 110.838 53.7594 110.836 54.9172V67.9828C110.838 69.1406 111.298 70.2505 112.117 71.0692C112.936 71.8879 114.046 72.3486 115.204 72.3502H116.844C118.002 72.3502 119.114 71.8902 119.934 71.0714C120.754 70.2525 121.215 69.1417 121.217 67.9828V54.9172C121.215 53.7583 120.754 52.6475 119.934 51.8286C119.114 51.0097 118.002 50.5498 116.844 50.5498H115.204Z" fill="black"/>
<path d="M174.33 83.4354C174.244 83.4359 174.16 83.4183 174.081 83.3836C174.003 83.349 173.933 83.2982 173.875 83.2345C173.818 83.1708 173.775 83.0957 173.748 83.0141C173.722 82.9325 173.713 82.8463 173.723 82.7611C173.723 82.6093 175.673 67.1929 193.944 59.4847C194.093 59.4227 194.26 59.4224 194.41 59.4839C194.559 59.5454 194.677 59.6637 194.739 59.8127C194.802 59.9617 194.802 60.1293 194.74 60.2785C194.679 60.4277 194.56 60.5464 194.411 60.6084C185.221 64.4838 180.441 70.3272 178.011 74.5791C176.484 77.1478 175.44 79.9744 174.931 82.919C174.91 83.0628 174.837 83.194 174.727 83.2888C174.616 83.3835 174.476 83.4355 174.33 83.4354Z" fill="white"/>
<path d="M244.791 89.6009C236.463 87.9244 228.172 66.5614 227.826 65.6503C227.797 65.5757 227.784 65.4963 227.786 65.4165C227.789 65.3368 227.807 65.2583 227.84 65.1855C227.872 65.1128 227.919 65.0472 227.977 64.9925C228.035 64.9378 228.103 64.895 228.178 64.8667C228.253 64.8384 228.332 64.825 228.412 64.8274C228.491 64.8298 228.57 64.8479 228.643 64.8806C228.716 64.9133 228.781 64.96 228.836 65.0181C228.891 65.0762 228.933 65.1444 228.962 65.219C231.306 71.2932 238.583 87.0862 245.034 88.4104C245.191 88.4426 245.328 88.5353 245.417 88.6684C245.506 88.8014 245.538 88.9641 245.508 89.1211C245.492 89.1998 245.462 89.2747 245.417 89.3415C245.373 89.4083 245.316 89.4657 245.249 89.5103C245.183 89.5549 245.108 89.5859 245.029 89.6015C244.951 89.617 244.87 89.6168 244.791 89.6009Z" fill="white"/>
<path d="M248.192 82.4879C241.468 82.0931 237.617 73.4191 237.459 73.0486C237.411 72.9041 237.418 72.7466 237.48 72.6074C237.542 72.4681 237.654 72.3572 237.794 72.2968C237.934 72.2364 238.092 72.2308 238.236 72.2812C238.38 72.3316 238.499 72.4342 238.571 72.5687C238.607 72.6477 242.288 80.9269 248.259 81.2792C248.42 81.288 248.571 81.3605 248.679 81.4807C248.787 81.6009 248.842 81.7589 248.833 81.92C248.824 82.0811 248.752 82.2321 248.632 82.3397C248.512 82.4474 248.354 82.5029 248.192 82.494V82.4879Z" fill="white"/>
<path d="M156.15 140.181C155.989 140.181 155.834 140.117 155.721 140.003C155.607 139.889 155.543 139.734 155.543 139.573C155.543 139.33 155.421 133.621 162.334 130.559C168.839 127.674 170.443 119.334 170.194 115.744C170.188 115.664 170.198 115.584 170.224 115.509C170.249 115.433 170.289 115.363 170.341 115.302C170.447 115.18 170.597 115.106 170.759 115.094C170.92 115.083 171.079 115.136 171.2 115.242C171.322 115.348 171.397 115.498 171.408 115.659C171.516 118.557 170.979 121.443 169.835 124.108C168.766 126.611 166.683 129.958 162.826 131.671C156.654 134.398 156.751 139.476 156.751 139.531C156.757 139.614 156.746 139.697 156.718 139.775C156.691 139.853 156.648 139.925 156.591 139.986C156.535 140.047 156.467 140.096 156.391 140.129C156.315 140.163 156.233 140.18 156.15 140.181Z" fill="white"/>
<path d="M273.753 181.188C273.657 181.188 273.563 181.165 273.477 181.121C273.392 181.078 273.318 181.014 273.262 180.937C273.205 180.859 273.168 180.769 273.153 180.675C273.138 180.58 273.146 180.483 273.176 180.392C275.812 172.289 267.217 152.657 254.473 142.914C250.683 140.104 247.732 136.312 245.939 131.948C244.146 127.584 243.579 122.812 244.299 118.149C244.316 118.07 244.349 117.994 244.395 117.927C244.442 117.86 244.501 117.802 244.569 117.758C244.638 117.714 244.714 117.684 244.795 117.669C244.875 117.654 244.957 117.655 245.037 117.673C245.117 117.69 245.192 117.722 245.26 117.769C245.327 117.815 245.384 117.874 245.428 117.943C245.473 118.011 245.503 118.088 245.518 118.168C245.532 118.248 245.531 118.331 245.514 118.411C244.839 122.847 245.388 127.383 247.1 131.531C248.813 135.679 251.625 139.28 255.233 141.948C261.307 146.583 266.95 153.866 270.752 161.938C274.354 169.58 275.697 176.62 274.348 180.769C274.308 180.893 274.228 181.002 274.12 181.077C274.013 181.153 273.884 181.191 273.753 181.188Z" fill="white"/>
<path d="M154.37 248.023C151.619 246.176 148.518 244.914 145.259 244.317C139.877 243.37 138.085 236.822 135.394 237.769C132.703 238.717 136.202 246.692 138.626 248.023C138.626 248.023 127.868 249.158 124.011 248.594C120.154 248.029 113.078 245.848 111.996 246.984C110.915 248.12 111.729 250.774 114.329 251.631C114.329 251.631 107.878 249.729 107.246 252.293C106.615 254.856 113.005 256.66 113.005 256.66C113.005 256.66 108.753 255.901 108.686 257.705C108.619 259.509 110.927 261.781 116.661 263.208C116.661 263.208 111.996 261.993 111.996 264.818C111.996 267.642 123.537 270.989 134.769 272.411C146 273.832 151.442 272.605 154.4 271.372C156.468 270.586 158.648 270.136 160.857 270.042C160.857 270.042 164.8 254.382 160.857 248.399L154.37 248.023Z" fill="white"/>
<path d="M143.825 273.662C133.608 273.662 111.365 269.647 111.359 264.824C111.337 264.345 111.469 263.872 111.736 263.474C112.003 263.077 112.39 262.775 112.841 262.613C109.694 261.289 107.951 259.533 108.048 257.674C108.085 256.952 108.546 256.308 109.694 256.04C107.951 255.16 106.214 253.842 106.627 252.147C107.101 250.227 109.7 250.203 111.662 250.458C110.788 249.243 110.557 247.585 111.529 246.565C112.944 245.07 119.65 247.336 124.072 247.992C126.981 248.423 134.082 247.84 137.113 247.555C134.89 245.083 132.053 238.298 135.163 237.198C138.48 236.032 140.059 242.793 145.332 243.722C148.633 244.315 151.779 245.576 154.577 247.427L160.857 247.798C160.952 247.802 161.044 247.829 161.126 247.875C161.208 247.922 161.278 247.987 161.331 248.065C165.377 254.2 161.58 269.537 161.416 270.187C161.384 270.317 161.31 270.433 161.206 270.516C161.102 270.599 160.973 270.646 160.839 270.649C158.707 270.746 156.604 271.178 154.607 271.931C151.855 273.085 148.266 273.662 143.825 273.662ZM112.98 263.925C112.849 264.031 112.746 264.168 112.68 264.324C112.614 264.48 112.588 264.649 112.604 264.818C112.604 266.786 122.116 270.193 134.848 271.809C143.449 272.903 149.948 272.568 154.17 270.807C156.152 270.043 158.239 269.589 160.359 269.458C160.936 266.95 163.639 254.273 160.493 248.988C153.811 248.6 154.236 248.66 154.03 248.515C151.343 246.72 148.316 245.496 145.137 244.919C139.737 243.965 137.599 237.63 135.589 238.346C135.467 238.389 135.103 238.516 135.03 239.367C134.829 241.845 137.295 246.607 138.905 247.488C139.018 247.55 139.109 247.648 139.163 247.765C139.217 247.882 139.232 248.014 139.207 248.141C139.181 248.267 139.115 248.383 139.02 248.469C138.924 248.556 138.803 248.61 138.674 248.624C138.231 248.672 127.795 249.766 123.914 249.195C120.634 248.709 113.26 246.662 112.422 247.403C111.711 248.156 112.276 250.319 114.511 251.047C114.665 251.096 114.793 251.203 114.868 251.346C114.943 251.489 114.957 251.656 114.909 251.81C114.861 251.964 114.753 252.092 114.61 252.167C114.467 252.241 114.3 252.256 114.147 252.208C112.555 251.74 108.206 250.896 107.829 252.432C107.453 253.969 111.261 255.53 113.157 256.077C113.307 256.12 113.435 256.219 113.514 256.353C113.593 256.488 113.617 256.648 113.582 256.8C113.547 256.952 113.455 257.084 113.325 257.17C113.195 257.256 113.037 257.289 112.883 257.261C111.796 257.067 110.004 257 109.427 257.462C108.85 257.923 109.743 260.839 116.661 262.588L116.807 262.625C116.963 262.665 117.097 262.766 117.179 262.905C117.261 263.044 117.285 263.21 117.244 263.366C117.204 263.522 117.104 263.656 116.965 263.738C116.826 263.82 116.66 263.844 116.503 263.803C115.538 263.56 113.721 263.33 112.98 263.925Z" fill="#090817"/>
<path d="M151.248 246.656C159.867 244.67 174.385 241.31 192.65 237.016C217.22 231.239 229.533 228.214 230.681 221.636C231.416 217.421 227.158 215.003 225.044 210.356C220.859 201.172 223.762 185.057 251.278 154.741C251.278 154.741 279.718 218.903 278.181 246.285C276.644 273.668 151.108 272.368 151.108 272.368L151.248 246.656Z" fill="#34A8AF"/>
<path d="M238.018 225.998C237.863 225.998 237.714 225.939 237.601 225.833C237.488 225.727 237.42 225.581 237.411 225.427L233.724 165.019C233.714 164.857 233.769 164.699 233.876 164.578C233.983 164.458 234.134 164.384 234.295 164.375C234.456 164.365 234.614 164.42 234.735 164.527C234.856 164.634 234.929 164.785 234.939 164.946L238.626 225.354C238.631 225.436 238.619 225.519 238.59 225.597C238.562 225.675 238.518 225.747 238.461 225.807C238.404 225.867 238.336 225.915 238.259 225.948C238.183 225.981 238.101 225.998 238.018 225.998Z" fill="white"/>
<path d="M197.412 236.494C197.251 236.513 197.089 236.468 196.961 236.367C196.834 236.267 196.751 236.12 196.732 235.959C196.713 235.798 196.758 235.636 196.858 235.508C196.959 235.381 197.105 235.298 197.266 235.279C240.831 224.546 238.018 225.196 238.243 225.25C247.694 227.528 256.844 230.911 265.504 235.327C265.581 235.36 265.651 235.407 265.709 235.467C265.767 235.528 265.811 235.599 265.84 235.678C265.869 235.756 265.882 235.839 265.877 235.923C265.872 236.006 265.85 236.088 265.813 236.162C265.775 236.237 265.722 236.303 265.658 236.356C265.594 236.409 265.519 236.449 265.439 236.472C265.359 236.495 265.274 236.501 265.192 236.49C265.109 236.48 265.029 236.452 264.958 236.409C256.424 232.069 247.414 228.738 238.109 226.483C195.711 236.937 197.54 236.494 197.412 236.494Z" fill="white"/>
<path d="M128.828 266.081C126.617 266.081 118.885 264.411 115.878 263.651C115.798 263.635 115.722 263.602 115.655 263.556C115.587 263.509 115.53 263.45 115.487 263.38C115.443 263.311 115.414 263.234 115.401 263.153C115.388 263.073 115.391 262.99 115.411 262.911C115.431 262.831 115.466 262.757 115.515 262.691C115.564 262.626 115.626 262.571 115.697 262.531C115.768 262.49 115.846 262.464 115.927 262.454C116.009 262.444 116.091 262.45 116.169 262.473C116.254 262.473 124.345 264.478 128.877 264.848C129.038 264.855 129.19 264.925 129.299 265.043C129.408 265.162 129.466 265.319 129.46 265.48C129.453 265.641 129.383 265.793 129.265 265.902C129.146 266.012 128.989 266.069 128.828 266.063V266.081Z" fill="#080717"/>
<path d="M127.638 259.648C121.351 258.986 112.039 256.982 111.942 256.958C111.786 256.923 111.65 256.828 111.564 256.694C111.478 256.56 111.448 256.397 111.48 256.241C111.497 256.163 111.529 256.088 111.574 256.022C111.619 255.956 111.677 255.9 111.744 255.857C111.812 255.813 111.887 255.784 111.965 255.769C112.044 255.755 112.125 255.756 112.203 255.773C112.294 255.773 121.539 257.79 127.765 258.44C127.926 258.457 128.074 258.537 128.176 258.663C128.278 258.789 128.326 258.95 128.309 259.111C128.292 259.272 128.212 259.42 128.086 259.522C127.96 259.624 127.799 259.671 127.638 259.654V259.648Z" fill="#080717"/>
<path d="M128.828 254.637C123.896 254.637 113.807 252.122 113.381 252.019C113.301 252.003 113.226 251.97 113.158 251.924C113.091 251.877 113.034 251.817 112.99 251.748C112.947 251.679 112.918 251.602 112.905 251.521C112.892 251.44 112.895 251.358 112.915 251.278C112.934 251.199 112.97 251.125 113.019 251.059C113.068 250.994 113.13 250.939 113.201 250.898C113.272 250.857 113.35 250.831 113.431 250.821C113.512 250.811 113.594 250.818 113.673 250.841C113.776 250.841 124.042 253.422 128.859 253.422C129.02 253.422 129.174 253.486 129.288 253.6C129.402 253.714 129.466 253.869 129.466 254.03C129.466 254.191 129.402 254.345 129.288 254.459C129.174 254.573 129.02 254.637 128.859 254.637H128.828Z" fill="#080717"/>
</g>
<defs>
<clipPath id="clip0_1504_2153">
<rect width="311" height="311" fill="white"/>
</clipPath>
</defs>
</svg>
