<svg width="23" height="20" viewBox="0 0 23 20" fill="none" xmlns="http://www.w3.org/2000/svg">
<path d="M20.046 2.59133C19.5417 2.08683 18.943 1.68663 18.284 1.41358C17.6251 1.14054 16.9188 1 16.2055 1C15.4922 1 14.7858 1.14054 14.1269 1.41358C13.4679 1.68663 12.8692 2.08683 12.3649 2.59133L11.3184 3.63785L10.2719 2.59133C9.2533 1.57276 7.87182 1.00053 6.43134 1.00053C4.99086 1.00053 3.60938 1.57276 2.5908 2.59133C1.57223 3.6099 1 4.99139 1 6.43187C1 7.87235 1.57223 9.25383 2.5908 10.2724L3.63732 11.3189L11.3184 19L18.9995 11.3189L20.046 10.2724C20.5505 9.76814 20.9507 9.16942 21.2237 8.51045C21.4968 7.85148 21.6373 7.14517 21.6373 6.43187C21.6373 5.71857 21.4968 5.01225 21.2237 4.35328C20.9507 3.69431 20.5505 3.09559 20.046 2.59133Z" stroke="white" stroke-linecap="round" stroke-linejoin="round"/>
</svg>
