<svg width="22" height="22" viewBox="0 0 22 22" fill="none" xmlns="http://www.w3.org/2000/svg">
<path d="M15.2355 2.18261C16.3885 2.18606 17.4932 2.6456 18.3085 3.46087C19.1238 4.27615 19.5833 5.38091 19.5868 6.53388V15.2355C19.5833 16.3885 19.1238 17.4932 18.3085 18.3085C17.4932 19.1238 16.3885 19.5833 15.2355 19.5868H6.53388C5.38091 19.5833 4.27615 19.1238 3.46087 18.3085C2.6456 17.4932 2.18606 16.3885 2.18261 15.2355V6.53388C2.18606 5.38091 2.6456 4.27615 3.46087 3.46087C4.27615 2.6456 5.38091 2.18606 6.53388 2.18261H15.2355ZM15.2355 0.442383H6.53388C3.18349 0.442383 0.442383 3.18349 0.442383 6.53388V15.2355C0.442383 18.5859 3.18349 21.327 6.53388 21.327H15.2355C18.5859 21.327 21.327 18.5859 21.327 15.2355V6.53388C21.327 3.18349 18.5859 0.442383 15.2355 0.442383Z" fill="#F5F5F5"/>
<path d="M16.5408 6.53392C16.2827 6.53392 16.0303 6.45736 15.8156 6.31394C15.601 6.17051 15.4337 5.96665 15.3349 5.72814C15.2361 5.48963 15.2103 5.22718 15.2606 4.97398C15.311 4.72078 15.4353 4.4882 15.6178 4.30565C15.8004 4.1231 16.033 3.99879 16.2862 3.94842C16.5394 3.89806 16.8018 3.92391 17.0403 4.0227C17.2788 4.12149 17.4827 4.2888 17.6261 4.50345C17.7696 4.7181 17.8461 4.97047 17.8461 5.22863C17.8465 5.40014 17.813 5.57005 17.7475 5.72858C17.682 5.88711 17.5859 6.03115 17.4646 6.15243C17.3433 6.27371 17.1993 6.36984 17.0408 6.43531C16.8822 6.50077 16.7123 6.53429 16.5408 6.53392ZM10.8847 7.4038C11.5732 7.4038 12.2462 7.60795 12.8186 7.99044C13.3911 8.37293 13.8372 8.91657 14.1007 9.55263C14.3641 10.1887 14.4331 10.8886 14.2988 11.5638C14.1645 12.239 13.8329 12.8593 13.3461 13.3461C12.8593 13.8329 12.2391 14.1644 11.5638 14.2988C10.8886 14.4331 10.1887 14.3641 9.55264 14.1007C8.91658 13.8372 8.37294 13.3911 7.99045 12.8186C7.60796 12.2462 7.40381 11.5732 7.40381 10.8847C7.40479 9.96183 7.77185 9.07701 8.42444 8.42443C9.07702 7.77184 9.96183 7.40479 10.8847 7.4038ZM10.8847 5.66357C9.85208 5.66357 8.84263 5.96978 7.98401 6.54349C7.1254 7.1172 6.45619 7.93263 6.06101 8.88667C5.66584 9.84071 5.56244 10.8905 5.7639 11.9033C5.96536 12.9161 6.46263 13.8464 7.19282 14.5766C7.92301 15.3068 8.85333 15.8041 9.86613 16.0056C10.8789 16.207 11.9287 16.1036 12.8828 15.7084C13.8368 15.3133 14.6523 14.6441 15.226 13.7854C15.7997 12.9268 16.1059 11.9174 16.1059 10.8847C16.1059 9.49999 15.5558 8.17197 14.5766 7.19281C13.5975 6.21365 12.2695 5.66357 10.8847 5.66357Z" fill="#F5F5F5"/>
</svg>
