<svg width="310" height="310" viewBox="0 0 310 310" fill="none" xmlns="http://www.w3.org/2000/svg">
<g clip-path="url(#clip0_1504_2100)">
<g opacity="0.2">
<path d="M251.325 245.12C298.615 197.83 298.615 121.158 251.325 73.8679C204.035 26.5779 127.362 26.5779 80.0724 73.8679C32.7823 121.158 32.7823 197.83 80.0724 245.12C127.362 292.41 204.035 292.41 251.325 245.12Z" fill="#34A8AF"/>
</g>
<path d="M156.423 137.484C150.211 134.039 143.163 135.262 133.918 136.878C127.958 137.908 122.117 139.531 116.48 141.722L138.767 163.107C142.933 175.861 149.499 187.701 158.112 197.988C176.373 219.658 205.278 235.527 211.024 229.793C218.75 222.116 179.237 180.799 165.711 149.018C164.718 146.681 162.296 140.747 156.423 137.484Z" fill="white"/>
<path d="M206.84 231.568C196.438 231.114 173.188 216.824 157.652 198.388C149.014 188.095 142.425 176.245 138.241 163.477L116.062 142.164C115.988 142.094 115.933 142.006 115.902 141.908C115.871 141.811 115.865 141.707 115.885 141.606C115.905 141.506 115.95 141.412 116.016 141.334C116.082 141.256 116.166 141.196 116.262 141.159C121.939 138.952 127.821 137.314 133.821 136.267C143.042 134.668 150.32 133.403 156.726 136.957C162.647 140.245 165.142 146.118 166.207 148.631C179.727 180.599 219.719 222.019 211.46 230.23C210.279 231.392 208.493 231.64 206.84 231.568ZM117.588 141.958C140.729 164.167 139.27 162.714 139.343 162.932C143.474 175.618 150.004 187.391 158.578 197.613C177.015 219.489 205.357 234.589 210.6 229.376C217.66 222.358 178.474 180.46 165.087 149.109C164.07 146.687 161.69 141.111 156.132 138.023C150.078 134.674 143.357 135.849 134.02 137.466C128.414 138.442 122.913 139.944 117.588 141.952V141.958Z" fill="#090817"/>
<path d="M91.8678 140.778C91.8678 140.778 60.7346 136.842 48.3467 151.071C35.9588 165.299 23.2076 280.586 23.2076 280.586H64.1131L91.8678 140.778Z" fill="white"/>
<path d="M158.112 137.581C150.423 131.108 130.733 137.096 130.733 137.096L140.662 174.375C140.662 174.375 143.084 187.181 154.031 198.297C164.978 209.413 180.993 218.847 180.993 218.847L199.199 196.002C199.199 196.002 165.808 144.053 158.112 137.581Z" fill="#34A8AF"/>
<path d="M138.937 55.5879C138.937 55.5879 155.89 63.9615 142.915 97.2078L126.87 57.5557L138.937 55.5879Z" fill="#080717"/>
<path d="M255.974 29.4136H166.286C165.086 29.4136 163.936 29.8901 163.088 30.7383C162.24 31.5865 161.763 32.7369 161.763 33.9365V101.749C161.765 102.948 162.242 104.097 163.09 104.945C163.937 105.793 165.087 106.27 166.286 106.272H174.944L167.987 123.897C167.918 124.056 167.907 124.234 167.956 124.4C168.005 124.567 168.111 124.71 168.256 124.806C168.4 124.902 168.574 124.945 168.746 124.926C168.918 124.906 169.078 124.827 169.198 124.702L188.725 106.272H255.992C257.191 106.27 258.341 105.793 259.189 104.945C260.036 104.097 260.513 102.948 260.515 101.749V33.9365C260.515 33.341 260.397 32.7514 260.169 32.2014C259.941 31.6515 259.606 31.1521 259.184 30.7319C258.762 30.3117 258.261 29.9789 257.71 29.7527C257.16 29.5264 256.569 29.4112 255.974 29.4136Z" fill="white"/>
<path d="M167.424 123.691L174.084 106.895H166.286C164.926 106.894 163.623 106.353 162.661 105.391C161.7 104.43 161.159 103.127 161.158 101.767V33.9545C161.159 32.5949 161.7 31.2914 162.661 30.33C163.623 29.3686 164.926 28.8278 166.286 28.8262H255.974C257.334 28.8278 258.637 29.3686 259.599 30.33C260.56 31.2914 261.101 32.5949 261.102 33.9545V101.767C261.101 103.127 260.56 104.43 259.599 105.391C258.637 106.353 257.334 106.894 255.974 106.895H188.949L169.574 125.162C169.349 125.359 169.066 125.476 168.768 125.494C168.469 125.512 168.174 125.43 167.927 125.261C167.681 125.093 167.498 124.847 167.407 124.562C167.316 124.278 167.322 123.971 167.424 123.691ZM166.286 30.0189C165.247 30.0189 164.251 30.4317 163.516 31.1663C162.781 31.901 162.369 32.8974 162.369 33.9363V101.749C162.369 102.788 162.781 103.784 163.516 104.519C164.251 105.253 165.247 105.666 166.286 105.666H174.944C175.043 105.666 175.14 105.69 175.228 105.737C175.315 105.783 175.39 105.85 175.446 105.932C175.501 106.013 175.536 106.108 175.547 106.206C175.557 106.304 175.544 106.404 175.507 106.496C168.054 125.386 168.466 124.181 168.599 124.272C168.732 124.363 167.303 125.641 188.295 105.83C188.561 105.575 183.826 105.666 255.974 105.666C257.013 105.666 258.009 105.253 258.744 104.519C259.479 103.784 259.891 102.788 259.891 101.749V33.9363C259.891 32.8974 259.479 31.901 258.744 31.1663C258.009 30.4317 257.013 30.0189 255.974 30.0189H166.286Z" fill="#090817"/>
<path d="M155.987 140.299C150.622 135.674 145.088 136.818 125.562 138.537C124.628 138.619 123.688 138.505 122.8 138.204C121.913 137.903 121.098 137.42 120.407 136.787C119.716 136.154 119.164 135.384 118.786 134.527C118.408 133.669 118.212 132.742 118.212 131.805V114.73H95.1312V133.754C95.1307 135.572 94.4247 137.318 93.1619 138.624C91.8991 139.931 90.1783 140.697 88.3621 140.76C72.0689 141.323 66.6015 141.365 61.2976 146.493C52.4517 155.037 53.5355 168.545 54.5406 185.334C55.8121 206.586 57.2107 237.405 57.4832 277.081L154.673 277.269C154.975 245.918 156.918 214.605 160.492 183.457C162.732 164.161 165.257 148.292 155.987 140.299Z" fill="white"/>
<path d="M154.673 277.874L57.4832 277.686C57.3226 277.686 57.1686 277.623 57.0551 277.509C56.9415 277.395 56.8777 277.241 56.8777 277.081C56.6598 245.227 55.6668 214.366 53.9352 185.364C52.9664 169.241 51.6465 154.964 60.8738 146.051C66.4199 140.699 72.4928 140.693 88.344 140.148C90.0053 140.098 91.5812 139.4 92.7359 138.205C93.8906 137.009 94.5329 135.41 94.5258 133.748V114.73C94.5258 114.57 94.5896 114.416 94.7031 114.302C94.8167 114.189 94.9707 114.125 95.1313 114.125H118.212C118.372 114.125 118.526 114.189 118.64 114.302C118.753 114.416 118.817 114.57 118.817 114.73V131.805C118.819 132.655 118.996 133.496 119.338 134.274C119.68 135.052 120.18 135.751 120.806 136.327C121.431 136.902 122.169 137.342 122.973 137.618C123.778 137.895 124.63 138.001 125.477 137.932C144.931 136.231 150.762 135.02 156.387 139.863C165.341 147.589 163.652 161.951 161.497 180.133C157.679 212.388 155.603 244.826 155.279 277.305C155.269 277.459 155.201 277.604 155.089 277.71C154.976 277.816 154.828 277.874 154.673 277.874ZM58.0826 276.481L154.08 276.663C154.409 245.491 156.349 214.357 159.892 183.385C162.078 164.561 164.7 148.612 155.593 140.76C150.417 136.297 144.774 137.454 125.617 139.137C124.599 139.226 123.575 139.102 122.608 138.774C121.641 138.446 120.753 137.921 120 137.232C119.246 136.542 118.645 135.704 118.233 134.77C117.821 133.835 117.607 132.826 117.606 131.805V115.336H95.7367V133.754C95.7441 135.728 94.9818 137.627 93.6116 139.048C92.2415 140.469 90.3714 141.3 88.3984 141.365C72.3475 141.916 66.8983 141.934 61.7578 146.929C53.366 155.037 54.1289 167.77 55.0977 183.893C56.8051 212.913 57.8465 243.265 58.0826 276.481Z" fill="#090817"/>
<path d="M88.3621 140.76C88.3621 140.76 110.51 155.933 127.839 137.732C127.839 137.732 154.479 131.169 160.364 142.225C166.25 153.281 162.587 280.617 162.587 280.617H53.8867C53.8867 280.617 47.166 162.817 53.8867 150.713C60.6074 138.61 88.3621 140.76 88.3621 140.76Z" fill="#34A8AF"/>
<path d="M85.3105 140.281C85.3105 140.281 53.8867 136.581 44.4596 158.633C35.0324 180.684 29.668 230.714 29.668 230.714L66.6016 238.143L85.3105 140.281Z" fill="#34A8AF"/>
<path d="M23.2076 281.192C23.121 281.192 23.0353 281.175 22.9562 281.139C22.8771 281.104 22.8064 281.052 22.749 280.988C22.6916 280.923 22.6488 280.846 22.6235 280.763C22.5982 280.681 22.5909 280.593 22.6021 280.508L29.9222 227.656C29.933 227.577 29.9593 227.5 29.9996 227.431C30.04 227.361 30.0936 227.301 30.1574 227.252C30.2863 227.154 30.4489 227.111 30.6094 227.132C30.689 227.143 30.7656 227.169 30.8349 227.21C30.9043 227.25 30.965 227.304 31.0136 227.368C31.0623 227.431 31.0979 227.504 31.1184 227.582C31.1389 227.659 31.1439 227.74 31.1332 227.82L23.807 280.671C23.7866 280.815 23.7147 280.948 23.6046 281.043C23.4944 281.139 23.3535 281.192 23.2076 281.192Z" fill="#080717"/>
<path d="M145.748 83.167C145.67 83.167 145.718 83.3002 145.652 82.3375L145.567 82.2406C144.916 72.2822 140.471 62.9527 133.146 56.1748C125.821 49.3969 116.175 45.6869 106.197 45.8096C96.2178 45.9322 86.6662 49.8781 79.5102 56.834C72.3543 63.7899 68.1392 73.2259 67.7338 83.1972C66.5567 83.2707 65.4083 83.5919 64.3638 84.1397C63.3193 84.6875 62.4022 85.4496 61.6725 86.3762C60.9428 87.3028 60.417 88.373 60.1293 89.5168C59.8416 90.6606 59.7987 91.8522 60.0032 93.0138C60.2077 94.1753 60.6551 95.2806 61.3162 96.2574C61.9772 97.2341 62.837 98.0603 63.8393 98.682C64.8416 99.3036 65.9639 99.7066 67.1327 99.8647C68.3014 100.023 69.4904 99.9324 70.6219 99.5994C70.6703 99.7023 70.7066 99.8174 70.7551 99.9203C74.624 112.774 83.3912 127.396 103.232 129.376C128.801 131.925 139.918 115.227 143.89 99.7084C145.041 99.9723 146.235 99.9899 147.394 99.7601C148.553 99.5302 149.65 99.0581 150.614 98.3747C151.578 97.6913 152.386 96.812 152.986 95.7945C153.586 94.7769 153.965 93.6439 154.096 92.4699C154.228 91.2959 154.11 90.1074 153.751 88.982C153.391 87.8567 152.798 86.8201 152.01 85.94C151.222 85.06 150.256 84.3564 149.177 83.8754C148.098 83.3944 146.93 83.1468 145.748 83.1488V83.167Z" fill="white"/>
<path d="M108.379 130.243C88.2531 130.243 75.9076 118.902 70.2344 100.32C69.0465 100.59 67.8161 100.616 66.6179 100.396C65.4198 100.175 64.279 99.7137 63.2649 99.0388C62.2507 98.3638 61.3844 97.4898 60.7185 96.4696C60.0527 95.4495 59.6013 94.3046 59.3917 93.1045C59.1821 91.9045 59.2187 90.6744 59.4993 89.4889C59.7799 88.3035 60.2987 87.1875 61.024 86.2087C61.7493 85.23 62.6661 84.409 63.7186 83.7956C64.7711 83.1822 65.9374 82.7893 67.1465 82.6406C67.6568 72.5121 72.0474 62.9689 79.407 55.9915C86.7666 49.0141 96.5301 45.1382 106.671 45.1681C127.833 45.1681 145.046 61.873 146.275 82.5801C147.496 82.6448 148.691 82.9579 149.787 83.5002C150.883 84.0425 151.857 84.8026 152.649 85.7342C153.441 86.6657 154.035 87.7489 154.394 88.9178C154.753 90.0866 154.87 91.3164 154.738 92.5319C154.605 93.7475 154.226 94.9233 153.624 95.9874C153.022 97.0516 152.209 97.9817 151.235 98.7209C150.261 99.4601 149.146 99.9928 147.959 100.287C146.772 100.58 145.538 100.629 144.332 100.429C141.213 112.127 132.489 130.243 108.379 130.243ZM70.6279 98.9943C70.7475 98.9949 70.8641 99.0309 70.9633 99.0977C71.0624 99.1645 71.1395 99.2591 71.1849 99.3697C71.3182 99.7027 71.3181 99.7088 71.3303 99.7451C74.9631 111.897 83.5123 126.797 103.293 128.771C130.89 131.526 140.227 111.661 143.302 99.5756C143.341 99.4225 143.438 99.2906 143.573 99.208C143.707 99.1255 143.869 99.0987 144.023 99.1336C145.092 99.3767 146.2 99.391 147.275 99.1756C148.349 98.9603 149.366 98.5201 150.259 97.8839C151.152 97.2478 151.9 96.4301 152.454 95.4845C153.008 94.5389 153.356 93.4867 153.475 92.3971C153.594 91.3075 153.482 90.205 153.144 89.162C152.807 88.119 152.253 87.1591 151.519 86.3453C150.785 85.5315 149.887 84.8821 148.884 84.4398C147.881 83.9975 146.796 83.7723 145.7 83.7789C145.539 83.7789 145.385 83.7151 145.272 83.6015C145.158 83.488 145.095 83.334 145.095 83.1734C145.095 82.9676 145.095 82.7617 145.095 82.5679C145.033 82.4808 144.997 82.3779 144.992 82.2713C144.348 72.4708 139.97 63.2905 132.76 56.6212C125.55 49.9519 116.057 46.3014 106.236 46.4217C96.4149 46.542 87.0141 50.4239 79.9696 57.2678C72.9251 64.1117 68.7734 73.3964 68.3695 83.2097C68.3698 83.3642 68.311 83.513 68.2052 83.6255C68.0994 83.7381 67.9546 83.8059 67.8004 83.8152C65.7721 83.9268 63.868 84.8279 62.4957 86.3256C61.1233 87.8233 60.3917 89.7987 60.4574 91.829C60.523 93.8593 61.3808 95.7833 62.8471 97.1892C64.3133 98.5951 66.2716 99.3712 68.3029 99.3515C69.0891 99.3224 69.8693 99.2026 70.6279 98.9943Z" fill="#090817"/>
<path d="M50.8594 231.495L50.3084 169.858C50.3084 169.698 50.3722 169.544 50.4858 169.43C50.5993 169.317 50.7533 169.253 50.9139 169.253C51.0745 169.253 51.2285 169.317 51.342 169.43C51.4556 169.544 51.5193 169.698 51.5193 169.858L52.0703 231.483C52.0703 231.644 52.0065 231.798 51.893 231.911C51.7794 232.025 51.6254 232.088 51.4649 232.088C51.3043 232.088 51.1503 232.025 51.0367 231.911C50.9232 231.798 50.8594 231.644 50.8594 231.483V231.495Z" fill="white"/>
<path d="M97.7529 84.899C97.6315 84.8975 97.5134 84.8595 97.4139 84.79C95.2576 83.4803 92.7831 82.7878 90.2603 82.7878C87.7374 82.7878 85.2629 83.4803 83.1066 84.79C82.9669 84.8703 82.8011 84.8918 82.6455 84.8498C82.4899 84.8078 82.3574 84.7057 82.2771 84.566C82.1969 84.4263 82.1754 84.2604 82.2174 84.1048C82.2594 83.9493 82.3615 83.8168 82.5012 83.7365C84.866 82.3453 87.5621 81.6173 90.3057 81.629C93.0494 81.6408 95.7391 82.3918 98.092 83.8031C98.1946 83.8773 98.2714 83.9818 98.3115 84.1019C98.3516 84.222 98.3531 84.3517 98.3156 84.4727C98.2782 84.5936 98.2038 84.6998 98.1028 84.7763C98.0019 84.8528 97.8795 84.8957 97.7529 84.899Z" fill="#080717"/>
<path d="M91.8436 97.0688C93.9202 97.0688 95.6035 95.3854 95.6035 93.3088C95.6035 91.2322 93.9202 89.5488 91.8436 89.5488C89.767 89.5488 88.0836 91.2322 88.0836 93.3088C88.0836 95.3854 89.767 97.0688 91.8436 97.0688Z" fill="#080717"/>
<path d="M102.615 102.324C102.535 102.318 102.458 102.297 102.387 102.261C102.315 102.225 102.252 102.175 102.2 102.115C102.095 101.993 102.043 101.834 102.055 101.674C102.067 101.513 102.142 101.364 102.264 101.259C102.386 101.154 102.545 101.101 102.706 101.113C104.728 101.265 107.174 101.029 107.586 100.375C107.973 99.6301 106.454 94.8953 104.789 90.9416C104.758 90.8681 104.742 90.7892 104.742 90.7095C104.741 90.6298 104.757 90.5508 104.787 90.4771C104.818 90.4034 104.862 90.3364 104.919 90.28C104.975 90.2236 105.042 90.1789 105.115 90.1484C105.263 90.0859 105.43 90.0846 105.578 90.1448C105.727 90.2049 105.846 90.3217 105.909 90.4693C107.035 93.1516 109.541 99.5514 108.615 101.017C107.689 102.482 104.286 102.421 102.615 102.324Z" fill="#080717"/>
<path d="M91.6126 102.956C91.6289 101.084 89.3164 99.5452 86.4474 99.5202C83.5785 99.4952 81.2395 100.993 81.2231 102.865C81.2068 104.738 83.5193 106.276 86.3883 106.301C89.2572 106.326 91.5962 104.829 91.6126 102.956Z" fill="#34A8AF"/>
<path d="M99.9932 119.096C97.7227 119.096 95.8699 116.837 95.8699 114.058C95.8699 111.279 97.7227 109.027 99.9932 109.027C102.264 109.027 104.116 111.285 104.116 114.058C104.116 116.831 102.27 119.096 99.9932 119.096ZM99.9932 110.238C98.3887 110.238 97.0809 111.951 97.0809 114.058C97.0809 116.165 98.3887 117.885 99.9932 117.885C101.598 117.885 102.905 116.171 102.905 114.058C102.905 111.945 101.598 110.238 99.9932 110.238Z" fill="#080717"/>
<path d="M63.5742 84.2933C63.5742 84.2933 66.6016 82.8825 67.9336 84.2933C69.2656 85.704 69.3867 88.3984 71.4453 88.3984C73.5039 88.3984 73.1346 76.1558 75.0781 70.6702C77.0217 65.1847 82.7979 59.8323 82.7979 59.8323C82.7979 59.8323 95.3432 67.8548 100.689 64.9001C106.036 61.9454 100.689 56.8777 100.689 56.8777C100.689 56.8777 111.667 66.1655 117.297 63.9132C122.928 61.6609 118.563 56.8777 118.563 56.8777C118.563 56.8777 130.969 66.8073 139.615 63.9495C148.261 61.0917 148.697 49.497 144.737 45.7855C140.778 42.0739 130.055 45.7855 130.055 45.7855C130.055 45.7855 102.809 24.9997 81.2055 45.7855C81.2055 45.7855 70.858 46.8753 66.0687 53.6566C61.2795 60.4378 63.5742 84.2933 63.5742 84.2933Z" fill="#080717"/>
<path d="M162.586 205.254C162.438 205.255 162.294 205.201 162.182 205.103C162.07 205.005 161.999 204.869 161.981 204.721L158.257 173.945C158.248 173.866 158.254 173.785 158.276 173.708C158.297 173.631 158.334 173.559 158.383 173.496C158.433 173.433 158.494 173.38 158.564 173.341C158.634 173.302 158.711 173.277 158.79 173.267C158.87 173.257 158.95 173.264 159.027 173.285C159.105 173.307 159.177 173.344 159.24 173.393C159.303 173.442 159.355 173.504 159.394 173.574C159.434 173.643 159.459 173.72 159.468 173.8L163.198 204.576C163.208 204.662 163.2 204.749 163.174 204.831C163.148 204.914 163.105 204.99 163.047 205.054C162.989 205.118 162.918 205.169 162.838 205.204C162.759 205.238 162.673 205.255 162.586 205.254Z" fill="white"/>
<path d="M210.467 95.0463C226.304 95.0463 239.142 82.2081 239.142 66.3713C239.142 50.5345 226.304 37.6963 210.467 37.6963C194.63 37.6963 181.792 50.5345 181.792 66.3713C181.792 82.2081 194.63 95.0463 210.467 95.0463Z" fill="white"/>
<path d="M69.2535 73.4978C69.0929 73.4978 68.9389 73.4341 68.8254 73.3205C68.7118 73.207 68.648 73.053 68.648 72.8924C68.648 72.4988 68.2969 63.2049 75.6594 58.016C75.7242 57.9699 75.7974 57.937 75.8749 57.9192C75.9525 57.9014 76.0327 57.899 76.1112 57.9122C76.1896 57.9254 76.2647 57.954 76.3321 57.9962C76.3995 58.0384 76.4579 58.0935 76.504 58.1583C76.5501 58.2231 76.583 58.2963 76.6008 58.3739C76.6186 58.4514 76.621 58.5316 76.6078 58.6101C76.5946 58.6885 76.566 58.7636 76.5238 58.831C76.4816 58.8984 76.4265 58.9568 76.3617 59.0029C69.5441 63.8467 69.859 72.7471 69.859 72.8379C69.8666 72.9219 69.8565 73.0065 69.8295 73.0864C69.8025 73.1662 69.7591 73.2396 69.7021 73.3017C69.6451 73.3638 69.5758 73.4134 69.4985 73.4471C69.4213 73.4809 69.3378 73.4982 69.2535 73.4978Z" fill="white"/>
<path d="M86.1339 56.0118C86.0212 55.8984 85.9579 55.7449 85.9579 55.585C85.9579 55.425 86.0212 55.2715 86.1339 55.1581C86.1902 55.1014 86.2572 55.0563 86.331 55.0256C86.4048 54.9948 86.4839 54.979 86.5638 54.979C86.6438 54.979 86.7229 54.9948 86.7967 55.0256C86.8705 55.0563 86.9374 55.1014 86.9937 55.1581C88.8767 57.0472 94.3199 61.7759 96.8084 61.0554C98.982 60.4499 97.3048 55.0794 96.4209 53.0087C96.3675 52.8843 96.3574 52.7455 96.3921 52.6147C96.4269 52.4838 96.5045 52.3683 96.6125 52.2868C96.7206 52.2052 96.8529 52.1622 96.9883 52.1647C97.1236 52.1671 97.2543 52.2149 97.3593 52.3003C97.4623 52.3851 107.786 60.7284 112.436 58.0159C112.574 57.9435 112.735 57.9274 112.885 57.9709C113.035 58.0144 113.162 58.1142 113.24 58.2494C113.319 58.3846 113.341 58.5448 113.304 58.6965C113.267 58.8481 113.173 58.9796 113.041 59.0634C108.881 61.4853 101.537 56.8716 98.2615 54.5042C99.1515 57.2651 99.9265 61.4065 97.1474 62.2179C94.005 63.1321 88.4287 58.3126 86.1339 56.0118Z" fill="white"/>
<path d="M127.948 57.4407C125.045 56.3861 122.279 54.9897 119.707 53.2811C119.576 53.1888 119.486 53.0479 119.458 52.8895C119.43 52.7311 119.467 52.5681 119.559 52.4365C119.651 52.3048 119.792 52.2152 119.95 52.1874C120.109 52.1595 120.272 52.1958 120.404 52.2881C120.543 52.385 134.426 61.909 141.304 55.1641C141.361 55.1084 141.428 55.0645 141.502 55.0349C141.576 55.0052 141.655 54.9904 141.735 54.9912C141.814 54.9921 141.893 55.0086 141.966 55.0398C142.039 55.071 142.105 55.1163 142.161 55.1732C142.217 55.23 142.261 55.2973 142.29 55.3711C142.32 55.4449 142.335 55.5239 142.334 55.6034C142.333 55.683 142.317 55.7616 142.285 55.8348C142.254 55.908 142.209 55.9743 142.152 56.0299C138.416 59.6809 132.876 59.1905 127.948 57.4407Z" fill="white"/>
<path d="M149.387 155.055C152.372 162.853 180.569 235.043 207.512 231.344C208.439 231.217 213.252 230.563 216.122 226.96C228.734 211.145 183.875 163.416 165.771 144.992L149.387 155.055Z" fill="white"/>
<path d="M205.496 232.094C181.707 232.094 157.24 177.281 148.818 155.273C148.768 155.141 148.765 154.995 148.81 154.862C148.855 154.728 148.946 154.614 149.066 154.54L165.469 144.483C165.585 144.411 165.723 144.38 165.86 144.397C165.996 144.413 166.123 144.476 166.219 144.574C181.435 160.062 230.005 210.57 216.613 227.348C214.051 230.563 209.492 232.094 205.496 232.094ZM150.156 155.309C154.049 165.39 181.641 234.286 207.47 230.75C209.529 230.472 213.331 229.539 215.692 226.591C224.169 215.959 206.422 187.235 165.717 145.767L150.156 155.309Z" fill="#090817"/>
<path d="M140.282 112.633L134.649 114.612L141.361 133.714L146.994 131.735L140.282 112.633Z" fill="#080717"/>
<path d="M145.306 127.185L139.834 129.107C137.868 129.798 136.835 131.951 137.525 133.917L148.976 166.505C149.667 168.471 151.82 169.504 153.785 168.814L159.258 166.891C161.223 166.2 162.257 164.047 161.566 162.082L150.115 129.493C149.425 127.527 147.272 126.494 145.306 127.185Z" fill="white"/>
<path d="M152.53 169.64C151.623 169.64 150.739 169.359 150 168.835C149.26 168.311 148.701 167.571 148.4 166.716L136.951 134.124C136.567 133.029 136.634 131.827 137.136 130.782C137.637 129.736 138.533 128.933 139.627 128.547L145.076 126.622C146.172 126.238 147.376 126.306 148.422 126.808C149.469 127.311 150.273 128.209 150.659 129.304L162.102 161.89C162.294 162.433 162.377 163.007 162.346 163.582C162.315 164.156 162.171 164.718 161.922 165.237C161.674 165.756 161.325 166.22 160.897 166.604C160.469 166.987 159.969 167.283 159.426 167.473C153.626 169.531 153.523 169.64 152.53 169.64ZM146.523 127.585C145.761 127.585 145.851 127.633 140.009 129.692C139.217 129.97 138.569 130.551 138.204 131.307C137.84 132.062 137.79 132.931 138.065 133.724L149.551 166.316C149.832 167.107 150.414 167.754 151.171 168.117C151.927 168.48 152.797 168.529 153.589 168.254C159.711 166.098 159.002 166.329 159.038 166.329C159.83 166.049 160.478 165.467 160.842 164.71C161.205 163.953 161.253 163.083 160.976 162.29L149.551 129.704C149.33 129.079 148.919 128.539 148.377 128.159C147.834 127.779 147.186 127.578 146.523 127.585Z" fill="#090817"/>
<path d="M131.696 120.658C144.646 120.658 155.145 110.159 155.145 97.2081C155.145 84.2571 144.646 73.7583 131.696 73.7583C118.745 73.7583 108.246 84.2571 108.246 97.2081C108.246 110.159 118.745 120.658 131.696 120.658Z" fill="white"/>
<path d="M131.714 121.263C114.064 121.263 102.318 102.808 110.008 86.7938C112.065 82.5044 115.349 78.9216 119.442 76.4981C123.536 74.0747 128.257 72.9196 133.007 73.1788C137.757 73.438 142.324 75.1 146.13 77.9545C149.936 80.809 152.81 84.7279 154.388 89.2157C155.664 92.8421 156.053 96.7215 155.521 100.529C154.99 104.336 153.554 107.961 151.333 111.099C149.113 114.238 146.173 116.798 142.759 118.566C139.346 120.335 135.558 121.26 131.714 121.263ZM131.671 74.3574C126.823 74.3636 122.102 75.9118 118.191 78.7782C114.281 81.6446 111.383 85.6806 109.918 90.3024C108.453 94.9242 108.496 99.8923 110.041 104.488C111.585 109.084 114.552 113.069 118.511 115.868C122.471 118.666 127.218 120.133 132.066 120.055C136.914 119.978 141.611 118.36 145.479 115.436C149.347 112.513 152.185 108.435 153.582 103.792C154.979 99.1487 154.863 94.1818 153.25 89.6092C151.67 85.149 148.747 81.2878 144.883 78.5567C141.019 75.8255 136.403 74.3585 131.671 74.3574Z" fill="#090817"/>
<path d="M131.695 117.636C142.978 117.636 152.124 108.49 152.124 97.2078C152.124 85.9255 142.978 76.7793 131.695 76.7793C120.413 76.7793 111.267 85.9255 111.267 97.2078C111.267 108.49 120.413 117.636 131.695 117.636Z" fill="white"/>
<path d="M131.677 118.254C127.82 118.251 124.038 117.187 120.744 115.18C117.451 113.172 114.772 110.298 113.002 106.871C111.232 103.444 110.437 99.5964 110.706 95.7485C110.975 91.9007 112.296 88.2008 114.525 85.0531C116.755 81.9054 119.806 79.4312 123.347 77.9008C126.888 76.3704 130.781 75.8427 134.601 76.3755C138.421 76.9083 142.022 78.4809 145.008 80.9216C147.995 83.3623 150.254 86.5771 151.537 90.2147C152.649 93.3892 152.986 96.7839 152.518 100.115C152.05 103.446 150.791 106.617 148.847 109.362C146.902 112.107 144.329 114.347 141.342 115.894C138.355 117.441 135.041 118.25 131.677 118.254ZM131.708 77.3727C127.5 77.3683 123.399 78.7027 120 81.1829C116.6 83.6631 114.078 87.1604 112.798 91.169C111.518 95.1775 111.546 99.4894 112.878 103.481C114.211 107.472 116.779 110.936 120.21 113.372C123.642 115.808 127.759 117.088 131.967 117.029C136.174 116.97 140.254 115.573 143.615 113.042C146.977 110.51 149.446 106.975 150.665 102.948C151.885 98.9203 151.791 94.6093 150.398 90.6385C149.04 86.7644 146.512 83.4077 143.164 81.0315C139.816 78.6554 135.813 77.3769 131.708 77.3727Z" fill="#090817"/>
<path d="M168.726 148.007C168.726 148.007 158.227 136.721 154.134 134.571C150.041 132.422 138.283 134.142 137.314 136.285C136.346 138.428 139.07 141.425 139.07 141.425C139.07 141.425 137.217 144.804 140.82 146.584C140.82 146.584 138.507 149.775 142.636 151.561C142.636 151.561 141.31 155.266 145.537 156.744C149.763 158.221 157.083 156.435 159.523 158.687C161.963 160.94 161.763 162.926 161.763 162.926L168.726 148.007Z" fill="white"/>
<path d="M161.763 163.513C161.679 163.513 161.595 163.496 161.518 163.462C161.441 163.428 161.372 163.379 161.315 163.317C161.258 163.255 161.214 163.181 161.187 163.101C161.16 163.021 161.15 162.937 161.158 162.853C161.158 162.786 161.261 161.121 159.111 159.135C156.235 156.477 144.858 160.243 142.255 154.8C141.84 153.891 141.726 152.873 141.928 151.894C139.597 150.683 139.076 148.745 139.99 146.82C138.023 145.579 137.569 143.55 138.362 141.528C137.653 140.65 135.831 138.095 136.763 136.037C137.974 133.318 150.356 131.901 154.419 134.039C158.481 136.176 168.738 147.129 169.168 147.595C169.229 147.652 169.277 147.72 169.31 147.796C169.343 147.873 169.36 147.955 169.36 148.038C169.36 148.121 169.343 148.203 169.309 148.279C169.276 148.355 169.228 148.424 169.167 148.48C169.106 148.537 169.035 148.58 168.956 148.608C168.878 148.636 168.795 148.647 168.712 148.641C168.629 148.635 168.549 148.613 168.475 148.574C168.401 148.536 168.336 148.483 168.284 148.418C168.181 148.309 157.803 137.187 153.856 135.098C151.071 133.633 143.805 134.057 139.803 135.431C138.543 135.861 137.986 136.291 137.865 136.521C137.205 137.98 138.834 140.257 139.518 141.007C139.602 141.101 139.654 141.218 139.669 141.343C139.683 141.468 139.658 141.594 139.597 141.704C139.211 142.478 139.115 143.365 139.324 144.204C139.478 144.612 139.713 144.983 140.016 145.296C140.32 145.608 140.684 145.855 141.086 146.021C141.165 146.06 141.235 146.115 141.29 146.184C141.345 146.252 141.385 146.332 141.406 146.417C141.427 146.502 141.43 146.591 141.413 146.677C141.397 146.764 141.362 146.845 141.31 146.917C140.874 147.556 140.709 148.342 140.85 149.103C141.062 149.859 141.74 150.489 142.872 150.98C143.014 151.04 143.126 151.152 143.188 151.292C143.25 151.433 143.256 151.592 143.206 151.736C143.157 151.864 142.152 154.897 145.736 156.15C149.902 157.603 157.24 155.733 159.929 158.221C162.617 160.709 162.35 162.853 162.35 162.944C162.341 163.095 162.276 163.237 162.167 163.342C162.059 163.448 161.914 163.508 161.763 163.513Z" fill="#090817"/>
<path d="M227.696 52.646C226.749 51.6957 225.625 50.9418 224.387 50.4275C223.15 49.9132 221.824 49.6484 220.484 49.6484C219.145 49.6484 217.819 49.9132 216.581 50.4275C215.344 50.9418 214.22 51.6957 213.273 52.646L211.308 54.6173L209.343 52.646C207.431 50.7273 204.837 49.6494 202.132 49.6494C199.427 49.6494 196.833 50.7273 194.921 52.646C193.008 54.5647 191.934 57.1669 191.934 59.8803C191.934 62.5937 193.008 65.196 194.921 67.1147L196.886 69.086L211.308 83.5547L225.731 69.086L227.696 67.1147C228.643 66.1648 229.394 65.037 229.907 63.7957C230.42 62.5544 230.684 61.224 230.684 59.8803C230.684 58.5367 230.42 57.2062 229.907 55.965C229.394 54.7237 228.643 53.5959 227.696 52.646Z" fill="#34A8AF"/>
<path d="M122.42 84.5537C122.289 84.5553 122.162 84.5148 122.056 84.4381C121.951 84.3615 121.873 84.2528 121.834 84.1283C121.795 84.0038 121.798 83.8701 121.841 83.7471C121.884 83.6241 121.966 83.5184 122.075 83.4457C124.419 81.8417 127.187 80.9683 130.027 80.936C132.868 80.9037 135.654 81.7138 138.035 83.2641C138.102 83.3074 138.159 83.3635 138.204 83.429C138.249 83.4946 138.281 83.5685 138.298 83.6463C138.314 83.7242 138.315 83.8046 138.301 83.8829C138.286 83.9612 138.257 84.0358 138.213 84.1026C138.17 84.1694 138.114 84.227 138.048 84.2721C137.983 84.3173 137.909 84.349 137.831 84.3656C137.753 84.3822 137.673 84.3833 137.595 84.3688C137.516 84.3543 137.442 84.3246 137.375 84.2812C135.195 82.8611 132.643 82.1186 130.042 82.1477C127.441 82.1768 124.906 82.9761 122.759 84.4447C122.659 84.5142 122.541 84.5522 122.42 84.5537Z" fill="#080717"/>
<path d="M129.153 98.4555C131.563 98.4555 133.518 96.501 133.518 94.09C133.518 91.6791 131.563 89.7246 129.153 89.7246C126.742 89.7246 124.787 91.6791 124.787 94.09C124.787 96.501 126.742 98.4555 129.153 98.4555Z" fill="#080717"/>
<path d="M138.942 105.756C138.961 103.583 136.277 101.797 132.946 101.768C129.616 101.739 126.901 103.478 126.882 105.651C126.863 107.824 129.547 109.61 132.877 109.639C136.208 109.668 138.923 107.93 138.942 105.756Z" fill="#34A8AF"/>
<path d="M139.446 141.468C139.285 141.486 139.124 141.44 138.997 141.34C138.87 141.239 138.789 141.093 138.77 140.932C138.752 140.771 138.798 140.61 138.899 140.484C138.999 140.357 139.146 140.275 139.306 140.257C139.506 140.209 144.204 139.113 147.05 139.397C147.129 139.406 147.206 139.429 147.276 139.467C147.346 139.505 147.408 139.557 147.458 139.619C147.508 139.68 147.545 139.751 147.568 139.828C147.59 139.904 147.597 139.984 147.589 140.063C147.572 140.222 147.493 140.367 147.37 140.468C147.246 140.569 147.088 140.617 146.929 140.602C144.041 140.33 139.754 141.468 139.446 141.468Z" fill="#080717"/>
<path d="M140.82 147.189C140.74 147.2 140.66 147.194 140.582 147.174C140.505 147.153 140.432 147.117 140.369 147.068C140.24 146.969 140.157 146.823 140.136 146.663C140.115 146.502 140.159 146.34 140.257 146.212C140.356 146.083 140.502 145.999 140.662 145.979C143.083 145.394 145.585 145.23 148.061 145.494C148.222 145.515 148.368 145.599 148.466 145.727C148.565 145.855 148.609 146.018 148.588 146.178C148.567 146.339 148.483 146.485 148.355 146.583C148.227 146.682 148.064 146.726 147.904 146.705C145.532 146.468 143.137 146.632 140.82 147.189Z" fill="#080717"/>
<path d="M149.169 152.124C146.227 150.998 142.86 152.124 142.83 152.124C142.68 152.169 142.518 152.155 142.379 152.084C142.239 152.012 142.133 151.89 142.082 151.741C142.031 151.593 142.039 151.431 142.105 151.289C142.172 151.147 142.29 151.036 142.437 150.98C142.588 150.925 146.239 149.702 149.599 150.98C149.751 151.037 149.874 151.151 149.941 151.299C150.008 151.447 150.013 151.615 149.956 151.767C149.899 151.918 149.785 152.041 149.637 152.108C149.489 152.175 149.321 152.181 149.169 152.124Z" fill="#080717"/>
<path d="M77.4455 197.371C85.4141 197.371 91.8739 190.911 91.8739 182.942C91.8739 174.974 85.4141 168.514 77.4455 168.514C69.477 168.514 63.0172 174.974 63.0172 182.942C63.0172 190.911 69.477 197.371 77.4455 197.371Z" fill="#F5F4FE"/>
<path d="M210.467 96.2694C204.557 96.2659 198.782 94.5103 193.869 91.2248C188.957 87.9392 185.13 83.2711 182.87 77.8106C180.611 72.35 180.021 66.3422 181.175 60.5464C182.329 54.7506 185.176 49.4271 189.355 45.2488C193.534 41.0705 198.858 38.225 204.654 37.072C210.45 35.9189 216.458 36.5101 221.918 38.7708C227.378 41.0314 232.045 44.8601 235.33 49.7728C238.614 54.6856 240.369 60.4618 240.371 66.3714C240.366 74.3004 237.214 81.9032 231.607 87.5093C226 93.1154 218.396 96.2662 210.467 96.2694ZM210.467 38.9194C205.035 38.923 199.727 40.5371 195.213 43.5576C190.698 46.5782 187.181 50.8694 185.105 55.8888C183.03 60.9083 182.489 66.4304 183.552 71.7571C184.615 77.0837 187.233 81.9756 191.076 85.8142C194.919 89.6528 199.814 92.2658 205.141 93.3227C210.469 94.3795 215.991 93.8329 221.008 91.7518C226.025 89.6707 230.312 86.1487 233.328 81.631C236.343 77.1134 237.952 71.803 237.949 66.3714C237.941 59.0868 235.043 52.1031 229.89 46.9538C224.737 41.8045 217.752 38.9105 210.467 38.9073V38.9194Z" fill="#090817"/>
<path d="M235.376 80.9512C234.819 80.9512 238.228 82.5678 184.389 55.461C184.212 55.3715 184.053 55.248 183.923 55.0973C183.794 54.9467 183.695 54.7719 183.632 54.583C183.57 54.3941 183.545 54.1947 183.56 53.9963C183.574 53.7979 183.628 53.6043 183.717 53.4266C183.807 53.2489 183.93 53.0905 184.081 52.9606C184.232 52.8306 184.407 52.7316 184.595 52.6692C184.784 52.6068 184.984 52.5822 185.182 52.5969C185.38 52.6115 185.574 52.6651 185.752 52.7545L236.06 78.1055C236.354 78.264 236.588 78.5154 236.724 78.8204C236.86 79.1254 236.892 79.4669 236.814 79.7918C236.736 80.1166 236.552 80.4064 236.292 80.6162C236.032 80.8259 235.71 80.9437 235.376 80.9512Z" fill="#090817"/>
</g>
<defs>
<clipPath id="clip0_1504_2100">
<rect width="310" height="310" fill="white"/>
</clipPath>
</defs>
</svg>
