<svg width="62" height="74" viewBox="0 0 62 74" fill="none" xmlns="http://www.w3.org/2000/svg">
<path d="M46.0005 29.1879V13.8859C46.0005 10.4684 44.4201 7.19077 41.6071 4.77419C38.794 2.35762 34.9787 1 31.0005 1C27.0222 1 23.2069 2.35762 20.3939 4.77419C17.5808 7.19077 16.0005 10.4684 16.0005 13.8859V29.1879" stroke="white" stroke-width="2" stroke-linecap="round" stroke-linejoin="round"/>
<path d="M52 29.1877H10C5.02944 29.1877 1 32.6493 1 36.9193V65.2683C1 69.5383 5.02944 72.9998 10 72.9998H52C56.9706 72.9998 61 69.5383 61 65.2683V36.9193C61 32.6493 56.9706 29.1877 52 29.1877Z" stroke="white" stroke-width="2" stroke-linecap="round" stroke-linejoin="round"/>
</svg>
