<svg width="62" height="64" viewBox="0 0 62 64" fill="none" xmlns="http://www.w3.org/2000/svg">
<path d="M31.9072 22.6778C30.0134 22.4908 28.108 22.8937 26.4521 23.8314C24.7961 24.769 23.4704 26.1956 22.6566 27.9158C21.8427 29.636 21.5804 31.5657 21.9056 33.4407C22.2308 35.3157 23.1277 37.0444 24.4733 38.39C25.8189 39.7356 27.5476 40.6324 29.4226 40.9577C31.2976 41.2829 33.2273 41.0206 34.9475 40.2067C36.6677 39.3928 38.0943 38.0672 39.0319 36.4112C39.9696 34.7552 40.3725 32.8499 40.1854 30.9561C39.9722 28.8332 39.0315 26.8492 37.5228 25.3405C36.0141 23.8318 34.0301 22.8911 31.9072 22.6778ZM54.1316 31.8633C54.1257 32.8666 54.052 33.8683 53.9109 34.8616L60.4312 39.9757C60.7151 40.211 60.9064 40.5394 60.9711 40.9025C61.0358 41.2656 60.9697 41.6398 60.7845 41.9587L54.6162 52.6311C54.4289 52.9469 54.136 53.1865 53.7894 53.3076C53.4427 53.4287 53.0644 53.4236 52.7211 53.2931L46.2456 50.6855C45.8885 50.5434 45.5017 50.492 45.1199 50.536C44.738 50.5801 44.3731 50.7182 44.0578 50.9379C43.0695 51.6185 42.031 52.2231 40.9512 52.7465C40.6118 52.9114 40.3182 53.1575 40.0963 53.4628C39.8745 53.7682 39.7312 54.1235 39.6792 54.4973L38.7086 61.404C38.6449 61.7688 38.4564 62.1001 38.1755 62.3413C37.8945 62.5825 37.5385 62.7187 37.1683 62.7265H24.8317C24.4676 62.7203 24.1165 62.5901 23.8362 62.3576C23.556 62.1251 23.3633 61.804 23.29 61.4473L22.3208 54.5507C22.2664 54.1727 22.1194 53.8141 21.8929 53.5066C21.6665 53.1991 21.3676 52.9524 21.0228 52.7883C19.9443 52.2677 18.9094 51.6615 17.9278 50.9754C17.6136 50.7568 17.2498 50.6197 16.8694 50.5767C16.489 50.5336 16.1038 50.5859 15.7486 50.7288L9.27456 53.3349C8.93147 53.4655 8.55329 53.4709 8.20662 53.3501C7.85995 53.2292 7.56704 52.99 7.3795 52.6744L1.21117 42.002C1.02572 41.6831 0.95945 41.3088 1.02416 40.9457C1.08886 40.5825 1.28034 40.2541 1.56451 40.019L7.07519 35.6923C7.3771 35.4527 7.61438 35.1414 7.76549 34.7868C7.9166 34.4322 7.97677 34.0455 7.94052 33.6617C7.8886 33.0603 7.85687 32.4604 7.85687 31.8589C7.85687 31.2575 7.88716 30.6662 7.94052 30.0778C7.9728 29.6964 7.90969 29.3129 7.75687 28.962C7.60405 28.611 7.36632 28.3036 7.0651 28.0674L1.5573 23.7408C1.27774 23.5044 1.0903 23.1771 1.0278 22.8164C0.965307 22.4557 1.03175 22.0845 1.2155 21.7678L7.38383 11.0955C7.57115 10.7796 7.86396 10.54 8.21064 10.4189C8.55733 10.2978 8.93564 10.303 9.27889 10.4335L15.7544 13.041C16.1115 13.1832 16.4983 13.2346 16.8801 13.1905C17.262 13.1465 17.6269 13.0084 17.9422 12.7886C18.9305 12.1081 19.969 11.5035 21.0488 10.9801C21.3882 10.8151 21.6818 10.5691 21.9037 10.2637C22.1255 9.95836 22.2688 9.60308 22.3208 9.22924L23.2914 2.32251C23.3551 1.95774 23.5436 1.62644 23.8245 1.38522C24.1055 1.144 24.4615 1.00784 24.8317 1H37.1683C37.5324 1.0063 37.8835 1.13643 38.1638 1.36897C38.444 1.6015 38.6367 1.92255 38.7101 2.27924L39.6792 9.17588C39.7336 9.55384 39.8806 9.91249 40.1071 10.22C40.3335 10.5274 40.6324 10.7742 40.9772 10.9383C42.0557 11.4588 43.0907 12.0651 44.0722 12.7511C44.3865 12.9698 44.7502 13.1068 45.1306 13.1499C45.511 13.1929 45.8962 13.1406 46.2514 12.9977L52.7254 10.3917C53.0685 10.261 53.4467 10.2556 53.7934 10.3765C54.1401 10.4973 54.433 10.7366 54.6205 11.0522L60.7888 21.7245C60.9743 22.0434 61.0406 22.4177 60.9759 22.7809C60.9111 23.144 60.7197 23.4724 60.4355 23.7076L54.9248 28.0342C54.6216 28.2731 54.3829 28.584 54.2305 28.9387C54.0781 29.2933 54.0169 29.6805 54.0523 30.0648C54.0999 30.6619 54.1316 31.2619 54.1316 31.8633Z" stroke="white" stroke-width="2" stroke-linecap="round" stroke-linejoin="round"/>
</svg>
