<svg width="24" height="15" viewBox="0 0 24 15" fill="none" xmlns="http://www.w3.org/2000/svg">
<path d="M23.5283 3.46501C23.5283 1.73541 22.0215 0.344038 20.1596 0.344038C17.6376 0.24449 15.0656 0.206055 12.4371 0.206055H11.6177C8.99558 0.206055 6.41899 0.24449 3.89703 0.344423C2.0397 0.344423 0.532898 1.74348 0.532898 3.47308C0.419091 4.841 0.370836 6.20931 0.373568 7.57761C0.369016 8.94592 0.420608 10.3155 0.528345 11.6864C0.528345 13.416 2.03515 14.8189 3.89248 14.8189C6.5419 14.9226 9.25961 14.9688 12.0228 14.9649C14.7906 14.9726 17.5008 14.9239 20.1532 14.8189C22.0151 14.8189 23.5219 13.416 23.5219 11.6864C23.6312 10.3142 23.6812 8.94592 23.6767 7.57377C23.687 6.20546 23.6375 4.83587 23.5283 3.46501ZM9.79678 11.3481V3.79555L16.3976 7.56992L9.79678 11.3481Z" fill="#F5F5F5"/>
</svg>
